<?xml version="1.0" encoding="utf-8"?>
<!-- Generator: Adobe Illustrator 17.1.0, SVG Export Plug-In . SVG Version: 6.00 Build 0)  -->
<!DOCTYPE svg PUBLIC "-//W3C//DTD SVG 1.1//EN" "http://www.w3.org/Graphics/SVG/1.1/DTD/svg11.dtd">
<svg version="1.1" xmlns="http://www.w3.org/2000/svg" xmlns:xlink="http://www.w3.org/1999/xlink" x="0px" y="0px" width="220px"
	 height="285.6px" viewBox="0 0 220 285.6" enable-background="new 0 0 220 285.6" xml:space="preserve">
<g id="graphic_bg">
</g>
<g id="area_elements">
</g>
<g id="charachters">
	<g>
		<path fill="#9FBCBB" d="M130.5,77.2c0,0,13.9-25.5-3.7-26.8c0,0-11.9-2.5-15.4,10.9c0,0-8.2-19-26.1-9.3c0,0-8.6,6.7-1.9,15.4
			c0,0-12.5-6.3-17.6,5.2c0,0-4.5,9.9,8,16.3c0,0-12.9,4.6-9.2,15.4c0,0,3.5,12.3,22,12.1L130.5,77.2z"/>
		<path fill="#C69C6D" d="M109.6,226.8c0,0,2.9,13.7-2.1,41c0,0,20.3,11.8-2.2,12.9c0,0-39.1,0.2-35.6-13.1c0,0,6.4-37.4,3.4-50.5
			L109.6,226.8z"/>
		<path fill="#C69C6D" d="M152.7,214.9c0,0,4.5,25.5-2,52.3c0,0,33,16.9-13.2,9.3c0,0-22.6-1.8-20.4-14.3c0,0,7-30.8-1.9-43
			L152.7,214.9z"/>
		<path fill="#C69C6D" d="M126.1,153.8c0,0,65-18.6,79.8-70.5c0,0,4.3-11.3-8.3-13.3c0,0-9.5-1-11.4,7.8c0,0-8.1-1.8-6.4,5.8
			c0,0,0.7,4.2-2,8.6c-12.5,18.4-33.6,25.6-50.5,29.5L126.1,153.8z"/>
		<g>
			<path fill="#957F69" d="M183.6,36.2c10.8,10.2,13,28.8,2.8,39.6c-10.2,10.8-28.9,9.7-39.7-0.5c-10.8-10.2-11.3-27.2-1.1-38
				C155.8,26.6,172.8,26.1,183.6,36.2z"/>
			<path fill="#957F69" d="M145.7,37.3c-0.3,0.4-0.7,0.7-1,1.1l40.7,38.4c0.4-0.3,0.7-0.7,1-1c10.2-10.8,8-29.4-2.8-39.6
				C172.8,26.1,155.8,26.6,145.7,37.3z"/>
			<path fill="#957F69" d="M192.9,55.9l-26,27.5c5.2,0.1,10.4-1.1,14.8-3.8c0.1,0.2,0.3,0.4,0.5,0.6L194,93.5
				c1.2,1.2,3.2,1.1,4.3-0.1l6.3-6.7c1.2-1.2,1.1-3.2-0.1-4.3l-13.9-11c-0.2-0.2-0.4-0.3-0.7-0.5C192.4,66.3,193.3,61.1,192.9,55.9z
				"/>
			<path fill="#957F69" d="M200.5,91.1l4.2-4.4c1.2-1.2,1.1-3.2-0.1-4.3l-13.9-11c-0.2-0.2-0.4-0.3-0.7-0.5c2.4-4.5,3.4-9.8,2.9-15
				l-14,14.8L200.5,91.1z"/>
			<path fill="#C1272D" d="M182.5,17.2c4,2.7,4.1,8.4,0.3,11.3c-2.3,1.8-5.6,1.9-8,0.2c-4-2.7-4.1-8.4-0.3-11.3
				C176.9,15.7,180.1,15.6,182.5,17.2z"/>
		</g>
		<path fill="#C69C6D" d="M192.7,79.5c-0.8-2.4-3.3-3.7-5.6-2.9l-3.8,1.2c-2.4,0.8-3.7,3.3-2.9,5.6l0,0c0.8,2.4,3.3,3.7,5.6,2.9
			l3.8-1.2C192.1,84.4,193.4,81.9,192.7,79.5L192.7,79.5z"/>
		<path fill="#C69C6D" d="M85.7,121.1c0,0-72.1,6.9-72.3,77.6c0,0-0.7,11.9,12,12.6c0,0,9.6,0,10.3-9c0,0,8.3,1,5.6-6.4
			c0,0-1.8-4.7-0.5-9.8c2.3-13.1,16-28.5,42.4-36L85.7,121.1z"/>
		<path fill="#C69C6D" d="M138,121.7c0,0-29.5-19.7-56.3,0.9c0,0-24.7,21.6-18.5,74.3C63.3,196.9,150.7,191.5,138,121.7z"/>
		<path fill="#C1272D" d="M132,117.1c0,0,30.9,32.3,29.5,81.3l0,37.2l-6-12.8l-10.8,10.8l-16-9.3l-9.6,13.2l-11.3-10.4l-15.3,15.2
			l-13.3-11.1l-14.5,13.5l-2.6-50.5C62.1,194.2,139.2,177.6,132,117.1z"/>
		<path fill="#C69C6D" d="M132.8,109.7c0,0,1.3-21.3-2.3-32.6c-1.4-4.4-4.3-6.5-10.1-6.2l-30,1.7c0,0-10.3,0-9.4,12.9
			c0,0,3.1,34.8,2,46.1C83,131.6,134.7,173.6,132.8,109.7z"/>
		<path fill="#AE4972" d="M103.6,85.9c-0.1,2.2,1.7,4.1,4.1,4.3c2.4,0.1,4.5-1.6,4.6-3.8c0.1-2.3-1.1-2.9-4.1-4.3
			C106.1,81,103.8,83.6,103.6,85.9z"/>
		<path fill="#AE4972" d="M126.1,85.9c0.1,2.2-1.7,4.1-4.1,4.3c-2.4,0.1-4.5-1.6-4.6-3.8c-0.1-2.3,1.1-2.9,4.1-4.3
			C123.7,81,125.9,83.6,126.1,85.9z"/>
		<path fill="#D46F6D" d="M96.9,161c-0.1,1.2,0.9,2.1,2.2,2.2c1.3,0.1,2.5-0.8,2.5-2c0.1-1.1-0.9-2.2-2.3-2.2
			C98.1,158.9,97,159.8,96.9,161z"/>
		<path fill="#C69C6D" d="M184.7,77.7c0,0,6.3,0.1,5.1,4.8c0,0-1.2,3.3-6.1,2.9C183.6,85.4,183.9,77.7,184.7,77.7z"/>
		<g>
			<path fill="#9FBCBB" d="M128,106.5c0-5.2-4.3-9.5-9.5-9.5h-5c-5.2,0-9.5,4.3-9.5,9.5c0,0.1,0,0.1,0,0.2c0,0,0,0.1,0,0.1v0.4
				c0,1,0.8,1.8,1.8,1.8h0.4c1,0,1.8-0.8,1.8-1.8c0,1,0.8,1.8,1.8,1.8h0.4c1,0,1.8-0.8,1.8-1.8c0,1,0.8,1.8,1.8,1.8h0.4
				c1,0,1.8-0.8,1.8-1.8c0,1,0.8,1.8,1.8,1.8h0.4c1,0,1.8-0.8,1.8-1.8c0,1,0.8,1.8,1.8,1.8h0.4c1,0,1.8-0.8,1.8-1.8
				c0,1,0.8,1.8,1.8,1.8h0.4c1,0,1.8-0.8,1.8-1.8v-0.4c0,0,0-0.1,0-0.1C128,106.6,128,106.6,128,106.5z"/>
		</g>
		<g>
			<path fill="#9FBCBB" d="M116.1,144.3c-0.1,0-0.1,0-0.2,0c-0.9-0.1-3.7,0.2-5.3,0.5c-0.3,0.1-0.5-0.1-0.6-0.4
				c-0.1-0.3,0.1-0.5,0.4-0.6c1.7-0.3,4.6-0.6,5.5-0.5c0.3,0,0.5,0.2,0.4,0.5C116.4,144,116.3,144.2,116.1,144.3L116.1,144.3z"/>
			<path fill="#9FBCBB" d="M118,141.9c-0.2,0.1-0.4,0-0.6-0.2c-0.8-1.3-1.5-3-1.9-4.6c-0.1-0.3,0.1-0.5,0.4-0.6
				c0.3-0.1,0.5,0.1,0.6,0.4c0.4,1.5,1,3.1,1.8,4.3c0.1,0.2,0.1,0.5-0.1,0.7C118.1,141.9,118,141.9,118,141.9L118,141.9z"/>
			<path fill="#9FBCBB" d="M122.3,138.6c0,0-0.1,0-0.1,0c-0.3,0-0.5-0.2-0.5-0.5c0-1.8,0.9-3.6,2.4-4.7c0.2-0.2,0.5-0.1,0.7,0.1
				c0.2,0.2,0.1,0.5-0.1,0.7c-1.2,0.9-2.1,2.5-2,3.9C122.6,138.3,122.4,138.5,122.3,138.6L122.3,138.6z"/>
			<path fill="#9FBCBB" d="M119,134.1c-0.2,0.1-0.5,0-0.6-0.3c-0.6-1.3-1.8-2.9-2.7-3.6c-0.2-0.2-0.3-0.5-0.1-0.7
				c0.2-0.2,0.5-0.3,0.7-0.1c1,0.8,2.3,2.5,3,3.9C119.4,133.7,119.3,134,119,134.1C119.1,134.1,119,134.1,119,134.1L119,134.1z"/>
			<path fill="#9FBCBB" d="M111.7,136.8c0,0-0.1,0-0.2,0c-0.4,0-0.8,0-1.2,0c-0.5,0-1.3,0-1.7,0c0,0.1,0,0.2-0.1,0.3
				c-0.2,0.2-0.5,0.2-0.7,0.1c-0.4-0.3-0.3-0.7-0.3-0.8c0.2-0.6,1-0.6,2.8-0.5c0.4,0,0.8,0,1.2,0c0.3,0,0.5,0.2,0.5,0.5
				C112,136.6,111.9,136.8,111.7,136.8L111.7,136.8z"/>
			<path fill="#9FBCBB" d="M124.8,128.4c-0.2,0.1-0.5,0-0.6-0.2c-0.8-1.6-0.5-3.4,0.6-4.1c0.2-0.2,0.5-0.1,0.7,0.1
				c0.1,0.2,0.1,0.5-0.1,0.7c-0.7,0.5-0.9,1.8-0.3,2.9C125.2,128,125.1,128.3,124.8,128.4C124.9,128.4,124.8,128.4,124.8,128.4
				L124.8,128.4z"/>
			<path fill="#9FBCBB" d="M129.7,129.4c-0.1,0-0.2,0-0.3,0c-0.3-0.1-0.4-0.3-0.4-0.6c0.4-1.8,2.2-3.7,4.4-4.6
				c0.2-0.1,0.5,0,0.6,0.2c0.1,0.2,0,0.5-0.2,0.6c-1.9,0.8-3.5,2.5-3.8,3.9C130,129.3,129.9,129.4,129.7,129.4L129.7,129.4z"/>
			<path fill="#9FBCBB" d="M136.1,133.8c-0.1,0-0.1,0-0.2,0c-1.6-0.2-3.3,0.1-4.7,1c-0.2,0.1-0.5,0.1-0.7-0.2
				c-0.1-0.2-0.1-0.5,0.2-0.7c1.6-1,3.5-1.4,5.3-1.1c0.3,0,0.4,0.3,0.4,0.5C136.4,133.6,136.3,133.7,136.1,133.8L136.1,133.8z"/>
			<path fill="#9FBCBB" d="M133.9,140c-0.1,0-0.2,0-0.3,0c-1.2-0.4-2.4-0.4-3.6,0c-0.3,0.1-0.5-0.1-0.6-0.3
				c-0.1-0.3,0.1-0.5,0.3-0.6c1.4-0.4,2.8-0.4,4.2,0c0.3,0.1,0.4,0.4,0.3,0.6C134.1,139.8,134,139.9,133.9,140L133.9,140z"/>
			<path fill="#9FBCBB" d="M129.8,147.1c-0.2,0.1-0.5,0-0.6-0.3c-0.6-1.3-1.3-2.9-2-4.4c-0.1-0.2,0-0.5,0.2-0.6
				c0.2-0.1,0.5,0,0.6,0.2c0.7,1.4,1.4,3,2,4.4C130.1,146.7,130,147,129.8,147.1C129.8,147.1,129.8,147.1,129.8,147.1L129.8,147.1z"
				/>
			<path fill="#9FBCBB" d="M123.5,150.1C123.5,150.1,123.5,150.1,123.5,150.1c-0.3,0.1-0.6-0.1-0.6-0.4c-0.3-1.8-0.3-3.6,0-5.4
				c0-0.3,0.3-0.4,0.6-0.4c0.3,0,0.4,0.3,0.4,0.6c-0.3,1.7-0.3,3.4,0,5.1C123.9,149.8,123.8,150.1,123.5,150.1L123.5,150.1z"/>
			<path fill="#9FBCBB" d="M114.4,153.1c-0.1,0-0.3,0-0.4-0.1c-0.2-0.1-0.3-0.4-0.1-0.7c0.9-1.5,2.7-3.1,4.3-4.1
				c0.2-0.1,0.5-0.1,0.7,0.2c0.1,0.2,0.1,0.5-0.2,0.7c-1.5,0.9-3.2,2.5-4,3.8C114.6,153,114.5,153.1,114.4,153.1L114.4,153.1z"/>
			<path fill="#9FBCBB" d="M126.5,158.7C126.5,158.7,126.5,158.7,126.5,158.7c-0.3,0.1-0.6-0.1-0.6-0.3c-0.4-1.6-0.5-3.3-0.3-4.9
				c0-0.3,0.3-0.5,0.5-0.4c0.3,0,0.5,0.3,0.4,0.5c-0.1,1.6,0,3.2,0.3,4.6C126.9,158.4,126.7,158.6,126.5,158.7L126.5,158.7z"/>
			<path fill="#9FBCBB" d="M123.7,161.1c-0.2,0.1-0.3,0-0.5-0.1c-1.1-1-2.9-2.5-3.8-3.2c-0.2-0.2-0.2-0.5-0.1-0.7
				c0.2-0.2,0.5-0.2,0.7-0.1c0.9,0.8,2.7,2.2,3.8,3.3c0.2,0.2,0.2,0.5,0,0.7C123.8,161,123.8,161,123.7,161.1L123.7,161.1z"/>
			<path fill="#9FBCBB" d="M131.2,152.2c-0.1,0-0.1,0-0.2,0c-0.9-0.1-2.6-0.1-3-0.1c-0.3,0-0.5-0.2-0.5-0.5c0-0.3,0.2-0.5,0.5-0.5
				c0.4,0,2.2,0,3.1,0.1c0.3,0,0.5,0.3,0.4,0.5C131.5,152,131.3,152.2,131.2,152.2L131.2,152.2z"/>
			<path fill="#9FBCBB" d="M111.9,132c-0.1,0-0.3,0-0.4,0c-0.7-0.4-3.1-1.4-3.3-1.5c-0.3,0-0.4-0.3-0.4-0.5c0-0.3,0.3-0.4,0.6-0.4
				c0.2,0,2.8,1.1,3.6,1.6c0.2,0.1,0.3,0.4,0.2,0.7C112.1,131.9,112,132,111.9,132L111.9,132z"/>
		</g>
	</g>
</g>
<g id="text">
</g>
</svg>
