<?xml version="1.0" encoding="utf-8"?>
<!-- Generator: Adobe Illustrator 17.1.0, SVG Export Plug-In . SVG Version: 6.00 Build 0)  -->
<!DOCTYPE svg PUBLIC "-//W3C//DTD SVG 1.1//EN" "http://www.w3.org/Graphics/SVG/1.1/DTD/svg11.dtd">
<svg version="1.1" xmlns="http://www.w3.org/2000/svg" xmlns:xlink="http://www.w3.org/1999/xlink" x="0px" y="0px" width="178px"
	 height="208.1px" viewBox="0 0 178 208.1" enable-background="new 0 0 178 208.1" xml:space="preserve">
<g id="graphic_bg">
</g>
<g id="area_elements">
</g>
<g id="charachters">
</g>
<g id="text">
	<g>
		<path fill="#AE2A30" d="M106,114l-42-1c-1.2,2-24.6,55.8-19.9,60.7c4.7,4.9,19.9,12.3,43,11.8c23.1-0.5,47.2-6.9,48.9-11.5
			C137.6,169.3,111.4,118.4,106,114z"/>
		<g>
			<path fill="#DBD6B2" d="M56.6,185.5c-0.8-0.2-1.5-0.4-2.3-0.8c-3.2-1.5-5.9-3.7-9-5.4c-2.9-1.6-6.9-3.3-7.7-6.8
				c-0.9-4,3.3-9.9,5-13.4c3.6-7.4,5.1-16,8.1-23.7c2.7-6.8,5.4-13.5,8.4-20.2c0.7-1.6,1.2-2.7,1.6-3.4c0.1-0.2,0.2-0.3,0.3-0.6
				c0.6-1,1.8-1.6,3-1.6l42,1L106,114l-2.2,2.7l2.2-2.7l0.1-3.4c0.8,0,1.5,0.3,2.1,0.8c0.9,0.8,1.6,1.6,2.4,2.7
				c0.8,1.1,1.7,2.4,2.7,4c1.9,3.1,4.2,7,6.6,11.3c3.7,6.6,6.7,13.8,10.7,20.2c3.6,5.9,7.4,12.5,9.3,19.2
				c3.2,11.2-11.8,13.9-19.5,15.8c-9.4,2.3-21.4,4.1-33.2,4.3c-0.8,0-1.5,0-2.3,0c-7.4,0-14.6-1-21.8-2.5
				C60.8,186,58.7,186,56.6,185.5z M59.1,178.1c6.5,2.2,15.2,3.9,25.8,3.9l0,0c0.7,0,1.4,0,2.1,0l0,0c9.2-0.2,18.7-1.4,26.7-3l0,0
				c8-1.6,14.6-3.7,17.6-5.5l0,0c0.5-0.3,0.9-0.6,1.2-0.8l0,0c-0.1-0.3-0.2-0.8-0.3-1.3l0,0c-0.3-1.1-0.8-2.5-1.4-4.1l0,0
				c-1.2-3.2-3-7.3-5.1-11.7l0,0c-4.2-8.8-9.5-19.1-14-27l0,0c-3-5.2-5.7-9.5-7.2-11.4l0,0c0,0,0,0,0,0l0,0l-38.3-0.9
				c-0.5,1.1-1.2,2.6-1.9,4.4l0,0c-1.6,3.7-3.7,8.6-5.8,14l0,0c-4.3,10.8-8.9,23.4-10.7,31.3l0,0c-0.5,2.2-0.8,4-0.8,5l0,0
				c0,0.2,0,0.3,0,0.5l0,0C48.7,173.4,53,176.1,59.1,178.1L59.1,178.1z"/>
		</g>
		<path fill="#B0C2A4" d="M64.9,165.8c1.6,1.7,42.8-1.5,44.7-3.7c1.2-1.4,0.4-17.4-2-32.7c-0.7-4.6,18.4,22.6,21.6,11.3
			c3.8-13.5-26.4-32.1-27.2-33.7c0,0-24.9,0-31.1,0.7c-6.2,0.7-22,15.3-25,19.6c-2.9,4.3-9.6,13.7-8.1,18.4c2.7,8.4,12.9,6.2,15.2,1
			c2.3-5.2,4.7-8.7,8.4-14.5c1.9-3.1,2-1.4,2,0.7C63.5,136.2,63.4,164.1,64.9,165.8z"/>
		<path fill="#463324" d="M40.2,136.5c-1.8,3.4-3,6.8-2.2,9.2c2.7,8.4,12.9,6.2,15.2,1c1.3-2.9,2.2-5.9,3.4-9
			c-1.1-0.5-2.2-0.9-3.3-1.1C48.9,135.9,44.2,135.2,40.2,136.5z"/>
		<path fill="#231F20" d="M58.2,196.3c-3.3,3,8.8,2.3,9.8,0.7c0.6-0.9,3.1-8,5.4-14.1c-4-0.3-8.1-0.6-12.1-1.1
			C60.5,188.7,59.4,195.2,58.2,196.3z"/>
		<path fill="#231F20" d="M115.2,180.5c-4.2,0.9-8.5,1.6-12.8,2.1c3.1,6.7,6.7,15,7.5,15.7c1.3,1.3,10.5,1.1,9.3-0.5
			C118.6,196.9,117.1,188.9,115.2,180.5z"/>
		<path fill="#463324" d="M108.9,160.6c0,0-44.2,0.9-44.9,2c-0.4,0.6-1.4,10.3-2.6,19.2c4,0.5,8,0.8,12.1,1.1
			c1.7-4.4,3.3-8.3,4.1-8.8c1.8-1.3,18.8-1.6,20.3-0.4c0.6,0.5,2.5,4.3,4.5,8.9c4.3-0.5,8.6-1.1,12.8-2.1
			C113.4,171.9,111.1,162.9,108.9,160.6z"/>
		<path fill="#282417" d="M109.9,156.6c-0.7-0.4-45.2,1.1-46,2c-0.8,0.9-2.3,7-0.7,6.9c1.6-0.1,45.3-2.7,46.7-2.8
			C111.4,162.8,110.6,157.1,109.9,156.6z"/>
		<path fill="#DD8F18" d="M103,163.4c-16.5,3.4-38.6-2.8-39.7-3.4c-1.1-0.6-1.7,2.3-0.2,3.2c2.9,1.7,35.9,6.9,42,3.4
			C106.9,165.6,105.2,168,103,163.4z"/>
		<path fill="#DD8F18" d="M137.1,199.1c-1.3-3.9-24.6-44.9-28.2-46.2c-3.6-1.3-11.1,3.9-9.2,8.5c2,4.6,28.1,39,29.8,40.9
			C132.9,205.9,138.5,203,137.1,199.1z"/>
		<path fill="#EC1C24" d="M104.7,104.8l-19.6,1.6c0.3,1.3,6.2,20.3,13.1,18c6.9-2.3,17.7-8.2,17.7-8.2S107.7,105.1,104.7,104.8z"/>
		<path fill="#EC1C24" d="M82.9,109.1l-12.8-3.4c-2.2,1.5-13,6.4-11.3,9.6c1.7,3.2,11.5,8.1,13.5,6.4
			C74.3,119.9,84.1,111.3,82.9,109.1z"/>
		<path fill="#AE2A30" d="M86.8,111.3l-4.9,2c0,0-8.6,24.6-7.9,25.3c0.7,0.7,4.2,2.9,4.7,1.2c0.5-1.7,5.6-26,5.6-26
			s1.5,26.8,2.7,26.8s3.7-1.7,4.2-2.5C91.7,137.3,87.8,111.8,86.8,111.3z"/>
		<path fill="#FFFBE0" d="M115.8,112.8c-5.9-2.2-15.7,9.3-18.7,8.4c-2.9-1-9.1-12.3-11.8-12.8c-2.7-0.5-15.2,11.3-17.4,10.3
			c-2.2-1-4.7-8.4-9.3-8.4c-4.7,0-5.9,3.9-3.9,6.4c2,2.5,10.1,8.5,14.2,8.8c6.4,0.5,13.3-11.1,15.2-10.1c2,1,6.7,11.2,10.6,12
			c8.6,2,21.9-6.4,23.8-7.9C120.4,118.2,119.2,114.1,115.8,112.8z"/>
		<circle fill="#FFD100" cx="93.6" cy="132.5" r="2.1"/>
		<circle fill="#FFD100" cx="93.6" cy="142.7" r="2.1"/>
		<circle fill="#FFD100" cx="94.7" cy="152" r="2.1"/>
		<circle fill="#FFD100" cx="77.9" cy="143.5" r="2.1"/>
		<circle fill="#FFD100" cx="78.3" cy="153" r="2.1"/>
		<path fill="#B0C2A4" d="M129.3,140.8c-0.2-7.4-13.1-5.2-11.8-3.3c2.1,3.1-6.9,16-9.6,17.3c-2.7,1.2-3.2,4.9,1.2,5.2
			C113.6,160.2,129.5,148.1,129.3,140.8z"/>
		
			<rect x="101.8" y="161.4" transform="matrix(0.852 -0.5235 0.5235 0.852 -68.7973 80.513)" fill="#945B2B" width="12.5" height="1.1"/>
		<path fill="#463324" d="M107.9,154.8c-2.7,1.2-3.2,4.9,1.2,5.2c3.2,0.2,12.3-6,17.1-12.2c-2.7-2.7-5.9-4.6-9.6-4.8
			C114.5,147.7,109.8,153.9,107.9,154.8z"/>
		
			<ellipse transform="matrix(0.6921 -0.7218 0.7218 0.6921 -29.7683 115.2437)" fill="#FCD1B6" cx="120.2" cy="92.5" rx="6.6" ry="5.5"/>
		<path fill="#FCD1B6" d="M118.5,80.4c5.9,23.8-5.9,30.9-32.8,31.1c-16.8,0.1-37.2-5-36-23.1c0.9-14.4,5.5-40.7,24.1-42.4
			C92.4,44.3,115,66.3,118.5,80.4z"/>
		<path fill="#431012" d="M130.8,75c-0.1-2.9-4.7-22.8-8.8-26.4c-4.1-3.6-13-11.1-22.1-13.9c0,0-8.2-2.9-15.4-3.2
			c-6-0.2-18.5,3-22.3,5.2c-7.1,3.9-12.9,9.9-15.9,14.2c-5.5,7.9-7.2,20.7-5.2,25.5c2.9,7.1,16,11.1,18.4,9.8
			c-2.6-3.9-5.6-17.9-4.4-18.9C60.6,81.6,70.7,83.8,73.6,84c-2.4-3.9-7.8-16.5-9.3-26.4C76,79.6,91.4,88.2,93.3,88
			c0.4-1.9,4.8-14.3,6.4-14.2c1.6,0.1,8.4,13.7,10,17.1c2.1-0.7,7.6-5.4,8.1-8.4c1,0.5-3.1,12.3-0.8,11.5
			C128.7,89.7,130.9,77.9,130.8,75z"/>
		<path fill="#B3025B" d="M35.3,60.4c14.5-1.4,29-3.6,43.5-2.6c22.5,1.6,43.8,10.9,66.2,14c6.9,0.9,14.9,0.8,19.4-4.4
			c2.8-3.2,3.5-8.1,1.8-12s-5.7-6.7-10-6.9c-1.2-0.1-2.5,0.1-3.5,0.8c-2.4,1.7-2,5.3-3.3,7.9c-2.1,4.2-8.4,4.7-12.3,2.1
			c-3.9-2.6-6.1-7.1-8-11.4c-4.7-10.2-9.5-20.7-17.6-28.5S91.4,6.9,80.8,10.6C71,14,64.8,23.3,58.1,31.2S41.6,46.5,31.6,43.9
			c1.7-2.9-1.9-6.2-5.3-6.5c-4.7-0.4-9.4,2.4-11.3,6.7s-0.8,9.7,2.7,12.9C22.2,61.2,29.1,61,35.3,60.4z"/>
		<path fill="#945B2B" d="M58,154.3c0.3,2.2-1.3,4.2-3.5,4.5l0,0c-2.2,0.3-4.2-1.3-4.5-3.5l-1.5-11.5c-0.3-2.2,1.3-4.2,3.5-4.5l0,0
			c2.2-0.3,4.2,1.3,4.5,3.5L58,154.3z"/>
		<path fill="#463324" d="M58.3,145.6c-0.3,2.5-3.6,4.2-7.4,5.1c-4.6,1-7.2-1.1-7.2-3.7c0-2.5,3.4-6,7.4-6
			C55.1,140.9,58.9,141.1,58.3,145.6z"/>
		<path fill="#EAF4EA" d="M56.1,74.4c0,0-14.5-17.4-17.2-17.1c-2.6,0.3-10.7,22.7-10.7,22.7l17.2,59.8l11.5-1.3L56.1,74.4z"/>
		
			<rect x="46" y="83.8" transform="matrix(0.9868 -0.1618 0.1618 0.9868 -17.2767 9.0069)" fill="#B5BFB9" width="1.3" height="53.5"/>
		<path fill="#945B2B" d="M63.3,137.9c0.3,1.7-0.2,3.3-1,3.4l-19.9,3c-0.8,0.1-1.7-1.2-1.9-2.9l0,0c-0.3-1.7,0.2-3.3,1-3.4l19.9-3
			C62.1,134.8,63,136.1,63.3,137.9L63.3,137.9z"/>
		<path fill="#FFF100" d="M21.2,61.2c0.8,4-1.7,6.9-2.7,8.1c3.3-0.1,5.1,3,6.3,4.7c-0.4-3.5,1.6-6.2,3-7.1
			C24.4,65.9,22.5,64,21.2,61.2z"/>
		
			<rect x="118.6" y="158" transform="matrix(0.8528 -0.5222 0.5222 0.8528 -74.905 88.2472)" fill="#945B2B" width="1" height="38.1"/>
		
			<ellipse transform="matrix(0.911 -0.4125 0.4125 0.911 -68.7835 71.1315)" fill="#945B2B" cx="130.4" cy="194.9" rx="1.6" ry="2.7"/>
		
			<ellipse transform="matrix(0.9108 -0.4127 0.4127 0.9108 -68.8159 71.1839)" fill="#DD8F18" cx="130.4" cy="194.9" rx="0.8" ry="1.3"/>
		<path fill="none" stroke="#231F20" stroke-width="3" stroke-linecap="round" stroke-miterlimit="10" d="M58.3,88.4
			c1-2.3,4.8-4,9.2-4c5.2,0,9.5,2.4,9.5,5.2"/>
		<path fill="none" stroke="#231F20" stroke-width="3" stroke-linecap="round" stroke-miterlimit="10" d="M87.3,90.2
			c1-2.3,4.8-4,9.2-4c5.2,0,9.5,2.4,9.5,5.2c0,0.6-0.2,1.2-0.6,1.8"/>
		<path fill="none" stroke="#231F20" stroke-width="4.5131" stroke-linecap="round" stroke-miterlimit="10" d="M74,100.9
			c2.1-0.3,4.3-0.4,6.5-0.4c3.6,0,7,0.4,9.9,1.1"/>
	</g>
</g>
</svg>
