<?xml version="1.0" encoding="utf-8"?>
<!-- Generator: Adobe Illustrator 17.1.0, SVG Export Plug-In . SVG Version: 6.00 Build 0)  -->
<!DOCTYPE svg PUBLIC "-//W3C//DTD SVG 1.1//EN" "http://www.w3.org/Graphics/SVG/1.1/DTD/svg11.dtd">
<svg version="1.1" xmlns="http://www.w3.org/2000/svg" xmlns:xlink="http://www.w3.org/1999/xlink" x="0px" y="0px" width="166.5px"
	 height="210px" viewBox="0 0 166.5 210" enable-background="new 0 0 166.5 210" xml:space="preserve">
<g id="graphic_bg">
</g>
<g id="area_elements">
</g>
<g id="charachters">
</g>
<g id="text">
	<g>
		<g>
			<path fill="#F384AC" d="M6.3,44.6c-0.3-2.8,1.1-5.2,3.2-7.2c4.2-4.1,7.9-8.7,12.4-12.2c5.2-4.1,10.4-3.6,16.4-4.8
				c3-0.6,6.1-1.1,9.2-1.7c2.7-0.5,5.2-1.6,7.8-2c5.5-0.9,11.3,1.3,16.1,3.8c4.6,2.4,8.4,6.8,12.5,10c4.2,3.2,7.8,8.5,9.2,13.8
				c0.5,2.1,1.9,3.8,1.5,6c-0.2,1.2-0.9,1.8-0.3,3c0.4,0.9,1.6,1.2,1.6,2.4c1.4,0.5,2.2,0.2,3.3,1.2c0.7,0.7,1.4,1.8,1.7,2.7
				c1,2.5-0.5,4.8-2.1,6.7c-1.7,2-3.6,3.3-5.7,4.8c-2,1.5-4,3.3-6.4,3.9c-5.7,1.4-11.4,2-17,3.9c-4.9,1.6-7.3,5-11.3,8
				c-1.5,1.1-3.1,2.4-4.6,3.5c-2.4,1.6-5,2.2-7.8,1.8c-4.9-0.8-8.4-2.8-12.3-6c-1.9-1.5-3.7-2.2-6-2.7c-2.5-0.5-4.1-1.1-6.4-2.4
				c-1-0.5-2.4-0.6-3.2-1.3c-0.8-0.7-1.4-2.1-1.7-3.1c-0.7-2.1-1-5.3-0.2-7.4c-2.5-2.1-4.5-5-5.9-7.8c-0.9-1.7-1.6-2.9-2.1-4.8
				C7,52.6,6.7,48.6,6.3,44.6z"/>
			<path fill="#F06098" d="M93.7,48.4c-0.2,1.2-0.9,1.8-0.3,3c0.1,0.3,0.4,0.5,0.6,0.7c0-0.6,0.4-1.2,0.5-2c0.4-2.2-1-3.9-1.5-6
				c-0.4-1.5-0.9-2.9-1.6-4.4c0.3,0.8,0.6,1.7,0.8,2.6C92.7,44.4,94.1,46.2,93.7,48.4z M9.3,59.5c-0.3-0.6-0.6-1.2-0.9-1.8
				c0.4,1.2,1,2.2,1.7,3.6c1.2,2.4,2.8,4.8,4.8,6.8c0.1-0.3,0.1-0.6,0.2-0.8C12.7,65.2,10.7,62.3,9.3,59.5z M100.8,59.6
				c-0.2-0.4-0.4-0.8-0.6-1.2c0.6,2.3-0.8,4.3-2.3,6.1c-1.7,2-3.6,3.3-5.7,4.8c-2,1.5-4,3.3-6.4,3.9c-5.7,1.4-11.4,2-17,3.9
				c-4.9,1.6-7.3,5-11.3,8c-1.5,1.1-3.1,2.4-4.6,3.5c-2.4,1.6-5,2.2-7.8,1.8c-4.9-0.8-8.4-2.8-12.3-6c-1.9-1.5-3.7-2.2-6-2.7
				c-2.5-0.5-4.1-1.1-6.4-2.4c-1-0.5-2.4-0.6-3.2-1.3c-0.3-0.3-0.6-0.7-0.9-1.2c0.4,1,0.9,2.4,1.7,3c0.8,0.7,2.3,0.8,3.2,1.3
				c2.4,1.3,3.9,1.9,6.4,2.4c2.3,0.5,4.2,1.2,6,2.7c3.9,3.2,7.4,5.3,12.3,6c2.8,0.4,5.4-0.2,7.8-1.8c1.6-1.1,3.1-2.3,4.6-3.5
				c4-3,6.4-6.4,11.3-8c5.6-1.9,11.3-2.4,17-3.9c2.4-0.6,4.4-2.4,6.4-3.9c2.1-1.5,4-2.8,5.7-4.8C100.3,64.3,101.9,62.1,100.8,59.6z"
				/>
			<path fill="#F06098" d="M59.3,70.2c-13,6.9-28.5,5.8-28.5,5.8c-6.3-0.2-11.4-3.8-14.7-6.9c-0.3,0.9-0.4,2-0.4,3.1
				C33.7,87.3,59.3,70.2,59.3,70.2z"/>
			<path fill="#F06098" d="M94.2,53.2c-0.2-0.4-0.2-0.8-0.2-1.1c-1.8,5.6-6.3,13.1-17.4,19.7c0,0,10.9-3.5,18.6-17.4
				C94.8,54,94.4,53.7,94.2,53.2z"/>
			<path fill="#F06098" d="M95.8,55.5c0,3.1-0.8,7.2-4.8,9.3c0,0-3.5,2-5.2,5.8c0,0,3-4,7-5.8c0,0,5.2-1.7,4.9-8.8
				c-0.5-0.1-1.1-0.2-1.8-0.4C95.8,55.6,95.8,55.6,95.8,55.5z"/>
		</g>
		<path fill="#EE3780" d="M117,174.5c-6-2.5-11.1-3.8-12.1-4c-3.2-1.1-6.2-2.3-9.1-3.9c-6.7-3.8-11.1-8.7-14.1-15.8
			c-2.1-4.8-2.5-11.1-5.2-17.6c-2.7-6.3-6.5-12.3-11.7-17.1c-11.5-10.6-13-20.4-13.1-24.7c-1.9,0.8-3.9,1.1-5.9,0.8
			c-0.4-0.1-0.7-0.1-1-0.2c0.2,6,2.7,17.8,15.4,29.4c4.3,3.9,7.6,9.1,9.9,14.6c2.2,4.9,2.6,11.2,5.1,17.5
			c3.5,8.4,9.3,14.9,17.2,19.3c3.4,1.9,6.9,3.3,10.4,4.5l0.1,0l0.2,0c0,0,0.1,0,0.2,0c1.1,0.3,6.3,1.6,12,4.2
			c5.7,2.5,11.7,6.3,14.5,10.7c0.7,1,1.8,1.6,2.9,1.6c0.7,0,1.3-0.2,1.9-0.6c1.6-1.1,2.1-3.3,1-4.9
			C131.3,181.5,123.6,177.3,117,174.5z M77.8,177.7c-1.9,0.2-3.3,2-3.1,3.9c0.1,0.6,0.1,1.1,0.1,1.6v0c0,2.8-0.8,3.9-1.7,4.7
			c-0.9,0.8-2.6,1.4-4.7,1.4c-2.1,0-4.5-0.5-6.7-1.4c-4.9-2.1-8-5.2-10-9.3c-2-4-2.9-9.1-2.9-14.6c0-0.2,0-0.5,0-0.7
			c0-1.9,0-3.8,0-5.8c0-13.2-1-27.6-9.9-39.4c-8.9-11.7-11.1-20.2-11.1-26c0-3.8,1-6.5,1.9-8.2c0,0,0,0,0,0
			c-0.7-0.2-1.4-0.4-2.1-0.6c-1.8-0.4-3.2-0.8-4.6-1.5c-1.1,2.5-2.1,6-2.1,10.3c0,7.7,3,17.8,12.5,30.3c7.3,9.6,8.4,22.1,8.4,35
			c0,1.9,0,3.8,0,5.7c0,0.3,0,0.5,0,0.8c0,6.3,1,12.5,3.7,17.9c2.7,5.4,7.2,10,13.6,12.6c2.9,1.2,6.1,2,9.3,2c3.2,0,6.5-0.8,9.1-3
			c2.7-2.2,4.2-5.9,4.2-10.2c0,0,0,0,0,0c0-0.8-0.1-1.6-0.1-2.4C81.4,178.9,79.7,177.5,77.8,177.7z M135.9,144
			c-1.2,0.1-2.3,0.1-3.5,0.1c-1.2,0-2.4,0-3.6-0.1c-8.6-0.7-16.8-4.2-22.7-10.4c-2.1-2.2-4.1-4.7-4.9-6.9
			c-3.1-8.1-5.8-17.4-12.5-24.9c-1.6-1.7-3.4-3.3-5.4-4.5c-2.6-1.6-5-3.8-7-6.3c-2.6-3.3-4.5-7.6-4.5-11.3c0-0.6,0-1.1,0.1-1.6
			c-0.8,0.2-1.6,0.5-2.4,0.7c-1.8,0.6-3.3,1.4-4.6,2.4c0.4,5.4,2.9,10.3,5.9,14.2c2.4,3.1,5.4,5.9,8.9,8.1c1.4,0.9,2.7,2,3.9,3.2
			c5.3,5.8,8,14.1,11.2,22.6c1.5,3.8,4.1,6.8,6.4,9.3c7.3,7.6,17.1,11.8,27.2,12.6c1.4,0.1,2.7,0.2,4.1,0.2c1.3,0,2.6,0,3.9-0.1
			c1.9-0.1,3.4-1.8,3.2-3.8C139.5,145.4,137.9,143.9,135.9,144z M152.8,107.9c-3.7-3.9-8-6.3-12.2-7.7c-4.2-1.4-8.4-1.8-12-1.8
			c-5.4,0-9.6,1-10.9,1.3c-0.3,0-0.7,0-1,0c-4.6,0-8.3-1.8-11.6-4.8c-4.9-4.4-8.6-11.6-10.8-17.7c-0.8-2.2-1.4-4.2-1.9-5.8
			c-1.9,1.4-3.7,2.9-5.9,3.5c-0.1,0-0.2,0.1-0.4,0.1c1,3.4,2.5,7.6,4.6,11.8c2.4,4.8,5.5,9.7,9.7,13.5c4.2,3.8,9.7,6.6,16.2,6.6
			c0.6,0,1.2,0,1.8-0.1l0.4,0l0.3-0.1c0,0,0,0,0.1,0c0.7-0.2,4.5-1.1,9.2-1.1c3,0,6.5,0.4,9.8,1.5c3.3,1.1,6.5,2.9,9.3,5.8
			c0.7,0.7,1.6,1.1,2.5,1.1c0.9,0,1.7-0.3,2.4-1C154.1,111.6,154.1,109.3,152.8,107.9z"/>
		<g>
			<path fill="#B3025B" d="M131.7,190.8c-2.7-4.3-8.8-8.2-14.5-10.7c-5.7-2.5-11-3.9-12-4.2c-0.1,0-0.2,0-0.2,0l-0.2,0l-0.1,0
				c-3.6-1.2-7.1-2.6-10.4-4.5c-7.9-4.4-13.7-10.8-17.2-19.3c-2.6-6.3-3-12.6-5.1-17.5c-2.4-5.6-5.7-10.7-9.9-14.6
				c-4.2-3.9-8-8.4-10.8-13.5c-1.5-2.7-5.1-10.1-0.2-11.4c0.4-0.1,0.8-0.1,1.2-0.1c-0.3-1.5-0.4-2.8-0.4-3.7
				c-1.9,0.8-3.9,1.1-5.9,0.8c-0.4-0.1-0.7-0.1-1-0.2c0.2,6,2.7,17.8,15.4,29.4c4.3,3.9,7.6,9.1,9.9,14.6c2.2,4.9,2.6,11.2,5.1,17.5
				c3.5,8.4,9.3,14.9,17.2,19.3c3.4,1.9,6.9,3.3,10.4,4.5l0.1,0l0.2,0c0,0,0.1,0,0.2,0c1.1,0.3,6.3,1.6,12,4.2
				c5.7,2.5,11.7,6.3,14.5,10.7c0.7,1,1.8,1.6,2.9,1.6c0.7,0,1.3-0.2,1.9-0.6c0.4-0.3,0.7-0.6,1-1c-0.4,0.2-0.8,0.2-1.2,0.2
				C133.4,192.4,132.3,191.9,131.7,190.8z"/>
			<path fill="#B3025B" d="M60.8,193.1c-6.4-2.7-10.9-7.2-13.6-12.6c-2.7-5.4-3.7-11.6-3.7-17.9c0-0.3,0-0.5,0-0.8
				c0-1.9,0-3.8,0-5.7c0-12.9-1.1-25.4-8.4-35c-3.9-5.1-7.3-10.6-9.7-16.6c-0.9-2.3-1.6-4.6-2.1-7c-0.4-2.1-0.5-4.1-0.7-6.1
				c-0.2-1.6-0.1-3,0.8-4.3c0.9-1.3,2.3-2.1,3.8-1.6c0.5,0.2,1.1,0.3,1.6,0.7c0.3-0.8,0.6-1.5,0.9-2.1c0,0,0,0,0,0
				c-0.7-0.2-1.4-0.4-2.1-0.6c-1.8-0.4-3.2-0.8-4.6-1.5c-1.1,2.5-2.1,6-2.1,10.3c0,7.7,3,17.8,12.5,30.3c7.3,9.6,8.4,22.1,8.4,35
				c0,1.9,0,3.8,0,5.7c0,0.3,0,0.5,0,0.8c0,6.3,1,12.5,3.7,17.9c2.7,5.4,7.2,10,13.6,12.6c2.9,1.2,6.1,2,9.3,2c3.2,0,6.5-0.8,9.1-3
				c0.2-0.2,0.4-0.4,0.6-0.6c-2.4,1.6-5.3,2.2-8.1,2.2C66.9,195.1,63.7,194.4,60.8,193.1z"/>
			<path fill="#B3025B" d="M137.5,144.3c0.5,0.7,0.9,1.4,0.8,2.4c-0.6,4-5.4,3.3-8.2,3c-10.1-0.8-19.9-4.9-27.2-12.6
				c-2.3-2.4-4.9-5.5-6.4-9.3c-3.2-8.5-5.8-16.8-11.2-22.6c-1.2-1.3-2.5-2.4-3.9-3.2C78,99.9,75,97.1,72.6,94
				c-1.7-2.2-7.4-9.6-3-11.9c0.7-0.4,1.6-0.5,2.5-0.4c-0.1-0.7-0.2-1.4-0.2-2c0-0.6,0-1.1,0.1-1.6c-0.8,0.2-1.6,0.5-2.4,0.7
				c-1.8,0.6-3.3,1.4-4.6,2.4c0.4,5.4,2.9,10.3,5.9,14.2c2.4,3.1,5.4,5.9,8.9,8.1c1.4,0.9,2.7,2,3.9,3.2c5.3,5.8,8,14.1,11.2,22.6
				c1.5,3.8,4.1,6.8,6.4,9.3c7.3,7.6,17.1,11.8,27.2,12.6c1.4,0.1,2.7,0.2,4.1,0.2c1.3,0,2.6,0,3.9-0.1c1.9-0.1,3.4-1.8,3.2-3.8
				C139.6,145.9,138.7,144.8,137.5,144.3z"/>
			<path fill="#B3025B" d="M152,112.6c-0.9,0-1.8-0.4-2.5-1.1c-2.8-2.9-6-4.7-9.3-5.8c-3.3-1.1-6.8-1.5-9.8-1.5
				c-4.7,0-8.5,0.9-9.2,1.1c-0.1,0-0.1,0-0.1,0l-0.3,0.1l-0.4,0c-0.6,0-1.2,0.1-1.8,0.1c-6.5,0-12-2.7-16.2-6.6
				c-4.2-3.8-7.4-8.7-9.7-13.5c-1.2-2.4-4.9-8.8-0.1-9.9c0.5-0.1,0.9-0.1,1.3,0c-0.5-1.5-0.9-2.9-1.3-4.1c-1.9,1.4-3.7,2.9-5.9,3.5
				c-0.1,0-0.2,0.1-0.4,0.1c1,3.4,2.5,7.6,4.6,11.8c2.4,4.8,5.5,9.7,9.7,13.5c4.2,3.8,9.7,6.6,16.2,6.6c0.6,0,1.2,0,1.8-0.1l0.4,0
				l0.3-0.1c0,0,0,0,0.1,0c0.7-0.2,4.5-1.1,9.2-1.1c3,0,6.5,0.4,9.8,1.5c3.3,1.1,6.5,2.9,9.3,5.8c0.7,0.7,1.6,1.1,2.5,1.1
				c0.9,0,1.7-0.3,2.4-1c0.2-0.2,0.3-0.4,0.5-0.6C152.8,112.5,152.4,112.6,152,112.6z"/>
		</g>
		<g>
			<path fill="#FFFFFF" d="M17.6,33.7c0,0-13.2,26.3,11.2,37.8C28.8,71.4,0.2,62.4,17.6,33.7z"/>
			<path fill="#FFFFFF" d="M63.6,21c0,0,27.7,9.9,22.1,28.7C85.7,49.7,88.6,31.1,63.6,21z"/>
		</g>
		<g>
			<path fill="#F4BCD7" d="M19.6,40.3c1.1,3,4.9,2,7.3,2.4c3,0.6,5.5,0.3,8-1.7c1.4-1.1,3.8-2.2,4.7-3.7c0.8-1.3,1.9-4.3,2-5.8
				c0.2-1.6-0.9-4.2-2.4-4.8c-3.8-1.3-10.6,0.9-13.8,3C22.5,31.6,18.2,36.5,19.6,40.3z"/>
			<path fill="#F4BCD7" d="M17,49.1c-1.1,1.5-1,6.4-0.3,8.2c0.4,1.1,1.3,2,2.3,2.3c0.6,0.2,1.4-0.2,2,0c0.6,0.2,0.9,0.9,1.5,1.1
				c2.2,0.8,4.8-2.4,7-2.9c2.4-0.6,5.7-1.2,4.2-4.4c-0.9-1.8-2.1-2.9-4.1-3.1c-1.2-0.1-1.9,0.1-3.1-0.4C24.2,48.9,18.9,46.5,17,49.1
				z"/>
			<path fill="#F4BCD7" d="M40.3,46c-1,1.1-1.4,1.7-0.2,3c0.9,1.1,2.5,2.1,3.8,2.4c0.7,0.2,1.3,0.1,1.9,0.3c0.8,0.3,1.2,0.8,2.1,0.9
				c3.3,0.6,5.1-1.2,5.5-4.3c0.1-0.6-0.1-0.9,0.2-1.5c0.3-0.6,1-0.8,1-1.6c0.1-3.7-4.6-3.6-6.8-3c-1.5,0.4-3.1-0.1-4.5,0.6
				C42.2,43.4,41.2,45.1,40.3,46z"/>
			<path fill="#F4BCD7" d="M56.9,38.3c2,0.2,3.3-2.3,4.7-3.5c2.2-1.8,2.3-2.5,1.9-5.3c-0.5-3.2-4.3-6.4-7.4-3.9
				C53,27.9,51.7,37.9,56.9,38.3z"/>
			<path fill="#F4BCD7" d="M69.1,47.2c1.7-1.3,2-2.7,1.7-3.9c-1-3.2-5.9-3.6-6.3,0C64.2,46,66.4,49.2,69.1,47.2z"/>
		</g>
		<g>
			<circle fill="#F4BCD7" cx="24.9" cy="90.9" r="1.6"/>
			<circle fill="#F4BCD7" cx="51.3" cy="99.5" r="1.6"/>
			<circle fill="#F4BCD7" cx="69.3" cy="86.6" r="1.6"/>
			<ellipse fill="#F4BCD7" cx="74.6" cy="92.7" rx="1.3" ry="1.3"/>
			<circle fill="#F4BCD7" cx="79.8" cy="99.3" r="2.3"/>
			<circle fill="#F4BCD7" cx="86.2" cy="102.1" r="1.6"/>
			<circle fill="#F4BCD7" cx="89.3" cy="110.8" r="1.6"/>
			<circle fill="#F4BCD7" cx="92.1" cy="113" r="1.2"/>
			<circle fill="#F4BCD7" cx="93.7" cy="118.9" r="1.6"/>
			<circle fill="#F4BCD7" cx="100.2" cy="129.3" r="1.1"/>
			<circle fill="#F4BCD7" cx="102.2" cy="135.8" r="1.6"/>
			<circle fill="#F4BCD7" cx="109.4" cy="139.4" r="2.2"/>
			<circle fill="#F4BCD7" cx="117.3" cy="146.1" r="1.6"/>
			<circle fill="#F4BCD7" cx="127.2" cy="145.7" r="1.6"/>
			<circle fill="#F4BCD7" cx="92.9" cy="79.5" r="1.6"/>
			<circle fill="#F4BCD7" cx="93.5" cy="87.4" r="1.6"/>
			<circle fill="#F4BCD7" cx="97.4" cy="89.7" r="1.1"/>
			<circle fill="#F4BCD7" cx="100.3" cy="96.3" r="1.6"/>
			<circle fill="#F4BCD7" cx="108.4" cy="101.7" r="1.6"/>
			<circle fill="#F4BCD7" cx="120" cy="104" r="2.1"/>
			<circle fill="#F4BCD7" cx="126.8" cy="100.3" r="1.6"/>
			<circle fill="#F4BCD7" cx="135.3" cy="103.5" r="1.6"/>
			<circle fill="#F4BCD7" cx="147.8" cy="106.4" r="1.6"/>
			<circle fill="#F4BCD7" cx="54" cy="108.9" r="2.1"/>
			<circle fill="#F4BCD7" cx="60.9" cy="115.3" r="1.1"/>
			<circle fill="#F4BCD7" cx="65.6" cy="122.7" r="1.6"/>
			<circle fill="#F4BCD7" cx="73.1" cy="131.2" r="1.6"/>
			<circle fill="#F4BCD7" cx="73.3" cy="137.8" r="1.2"/>
			<circle fill="#F4BCD7" cx="78.6" cy="147.1" r="1.6"/>
			<circle fill="#F4BCD7" cx="80.2" cy="156" r="2.2"/>
			<circle fill="#F4BCD7" cx="90.1" cy="165.1" r="1.6"/>
			<circle fill="#F4BCD7" cx="95.9" cy="171.9" r="1.6"/>
			<circle fill="#F4BCD7" cx="107.7" cy="173.9" r="2.1"/>
			<circle fill="#F4BCD7" cx="119.5" cy="180.2" r="1.6"/>
			<circle fill="#F4BCD7" cx="130" cy="185" r="1.6"/>
			<ellipse fill="#F4BCD7" cx="24.6" cy="98.9" rx="2.1" ry="2.2"/>
			<circle fill="#F4BCD7" cx="29" cy="104.9" r="1.6"/>
			<ellipse fill="#F4BCD7" cx="29.8" cy="112.9" rx="1.3" ry="1.2"/>
			<circle fill="#F4BCD7" cx="36" cy="118.5" r="1.6"/>
			<circle fill="#F4BCD7" cx="41.1" cy="129.1" r="1.6"/>
			<circle fill="#F4BCD7" cx="45.2" cy="140.1" r="1"/>
			<circle fill="#F4BCD7" cx="44.6" cy="153.5" r="1.6"/>
			<circle fill="#F4BCD7" cx="45.6" cy="175.2" r="1.6"/>
			<circle fill="#F4BCD7" cx="54.4" cy="186" r="1.1"/>
			<circle fill="#F4BCD7" cx="63.8" cy="192.4" r="2"/>
			<circle fill="#F4BCD7" cx="73.3" cy="190.3" r="1.4"/>
			<circle fill="#F4BCD7" cx="46.1" cy="165.3" r="2.2"/>
		</g>
	</g>
</g>
</svg>
