<?xml version="1.0" encoding="utf-8"?>
<!-- Generator: Adobe Illustrator 17.1.0, SVG Export Plug-In . SVG Version: 6.00 Build 0)  -->
<!DOCTYPE svg PUBLIC "-//W3C//DTD SVG 1.1//EN" "http://www.w3.org/Graphics/SVG/1.1/DTD/svg11.dtd">
<svg version="1.1" xmlns="http://www.w3.org/2000/svg" xmlns:xlink="http://www.w3.org/1999/xlink" x="0px" y="0px" width="158px"
	 height="264.1px" viewBox="0 0 158 264.1" enable-background="new 0 0 158 264.1" xml:space="preserve">
<g id="graphic_bg">
</g>
<g id="area_elements">
</g>
<g id="charachters">
	<g>
		<g>
			<g>
				<g>
					<path fill="#450C00" d="M106.8,32.5c0.3,0.6,0.2,1.3-0.2,1.9c-0.7,1.3-1.8,2.3-3.1,2.9c-1.7,0.9-3.5,1.4-5.4,1.7
						c-2.1,0.4-4.3,0.6-6.5,0.8C88.2,40,84.7,40,81.2,40c7.6-2.3,15-5.4,22.3-8.4c0.3-0.1,0.7-0.3,1-0.4
						C105.4,31.4,106.3,31.7,106.8,32.5z"/>
					<path fill="#601F02" d="M40.6,39c0.5-0.3,1.1-0.4,1.7-0.5c0,0,0,0,0,0c0,0,0.1,0,0.1,0c0,0,0,0,0,0c1.6,0,3.2,0.4,4.8,0.9
						c2.2,0.6,4.3,1.3,6.5,2c2.6,0.8,5.2,1.6,8,1.8c2.9,0.2,5.8-0.2,8.6-0.6c3.7-0.6,7.4-1.5,10.9-2.6c3,0,5.9,0.1,8.9,0
						c2.1-0.1,4.3-0.2,6.4-0.6c2-0.3,3.9-0.7,5.8-1.4c1.7-0.7,3.1-1.6,4.1-3.1c0.4-0.6,0.8-1.5,0.5-2.2c-0.3-0.9-1.4-1.3-2.3-1.5
						c3.1-1.3,6.2-2.7,9.4-3.9c3.8-1.4,7.9-2.6,12-2.6c1.9,0,3.8,0.3,5.5,1.1c1.8,0.8,3.3,2,4.4,3.6c2.5,3.5,3.7,7.8,3.3,12
						c-0.7,8.7-6.5,16.8-14,20.9c-9.9,5.3-20.2-1.2-29.9-3.5c-2.6-0.6-5.2-0.9-7.8-0.8c-2.8,0.1-5.7,0.6-8.4,1.2
						c-3.8,0.8-7.6,1.8-11.4,2.5c0,0,0,0,0,0c-2.5,0.4-5,0.8-7.5,0.7c-2.4-0.2-4.6-0.9-6.6-2.3c-2.2-1.5-4.1-3.5-5.9-5.4
						c-1.9-2.1-3.7-4.4-5.1-6.8c-0.7-1.2-1.4-2.5-1.9-3.8c-0.4-1-0.9-2.1-0.9-3.2C39.9,40.1,40,39.4,40.6,39z"/>
				</g>
			</g>
			<path d="M62.7,81.5c-6,1.3-9.6,3.5-10.2,9.9c-0.5,5.2,1.1,11.7,6.8,12.1c-5.6,0-9.6,0.8-10.6,7.1c-0.7,4.8-0.5,11.2,2.7,14.9
				c-8.3,0.4-16.5-2-18.4,8.4c-0.9,5.1,0.4,14.5,6.4,16c-7.2-0.6-16.4,2.2-18.3,9.8c-1.6,6.4,2.3,18.1,10.5,16.5
				c-5.5,0.8-18.5,9.4-13.6,16.3c5,7,26.2,5.2,32.7,1.7c4.4-2.3,10.9-6.6,13.5-10.9c2.7-4.5,4.7-11.9,6.6-16.9
				c3.8-9.9,8.1-19.4,10-29.9c2.7-15,6.1-29.4,6.7-44.7c0.4-10.8-6.1-13.5-14.2-18.7L62.7,81.5z"/>
			<path fill="#DD6C6C" d="M91,195.7c0.5,4.7,4.6,30.2-7.3,25.8c-3.9-1.5-8.1-1.8-11.6-4.2c-3.2-2.3-5.6-5.6-7.9-8.7
				c-8.2-11.2-15.9-24.5-15.2-39c0.3-5.4,1.7-10.9,4.3-15.6c2.4-4.3,2.7-9,4.5-13.6c1.2-3.1,2.7-6,4-9c1.1-2.5,2.1-5.1,3.9-7.1
				c1.4-1.6,3.3-2.7,5.1-3.6c9.5-4.7,20.5-5.5,31.1-4.6c5,0.4,10.1,1.2,14.5,3.5c2.3,1.2,4.4,2.8,5.6,5.1c1,1.9,1.2,4.1,1.2,6.3
				c0,3.2-0.4,6.3-1.2,9.4c-1.1,4-2.9,8-1.9,12c0.3,1.1,0.7,2.1,1,3.1c5.7,18.6,1.7,35.7-2.9,54c-0.9,3.8-4.9,5.6-8.5,6.4
				c-2.3,0.5-4.7-0.2-7-0.4c-1.9-0.1-3.5-0.7-4.9-2c-2.5-2.2-3.7-5.8-4.7-8.8C92.3,201.6,91.5,198.7,91,195.7"/>
			<g>
				<g>
					<path fill="#36162D" d="M47.2,154.6c-1.1,0.6-2.5,0.2-3.1-0.9l-6.8-12.6c-0.6-1.1-0.2-2.5,0.9-3.1l23.6-12.8
						c1.1-0.6,2.5-0.2,3.1,0.9l6.8,12.6c0.6,1.1,0.2,2.5-0.9,3.1L47.2,154.6z"/>
					
						<rect x="48.4" y="129.5" transform="matrix(0.478 0.8784 -0.8784 0.478 151.3715 23.9818)" fill="#FF00FF" width="14.1" height="19.7"/>
					<path fill="#F0812B" d="M68,136.2c-0.2,0.1-0.4,0-0.5-0.2l-2.7-5c-0.1-0.2,0-0.4,0.2-0.5l0,0c0.2-0.1,0.4,0,0.5,0.2l2.7,5
						C68.2,135.9,68.1,136.1,68,136.2L68,136.2z"/>
					<circle fill="#F0812B" cx="43.7" cy="145.8" r="1.5"/>
					<circle fill="#36162D" cx="44" cy="145.1" r="1.5"/>
				</g>
			</g>
			<path d="M92.6,54.7c-3.2,3.4-7.5,6.5-8.8,11c-1.6,5.2-1.7,10.5-2.3,15.9c-0.7,5.7-2.6,11.9-7.3,15.2c-1.5,1-3.2,1.7-4.9,2.3
				c-5.2,1.6-10.7,1.8-16,0.5C46.8,98,43.1,91.6,48,85.9c1.1-1.3,3-2.1,4.7-1.9c-2.8-2.6-0.6-8,2-9.9c2.8-2.1,6.2-4.3,9.9-3.7
				c-2.3-0.4-4.3-4.8-4.9-6.8C57,55,65.9,51.2,65.9,51.2c-4.5-2.5-5.6-7.4-0.7-10.6c3.9-2.5,7.4-3.6,5.7-9.2
				c-0.8-2.9-0.4-7.7,2.6-9.6c12.4-7.9,18.3,7.1,18.3,7.1c2.3-10.7,10.6-8.8,10.6-8.8c12.3,0.9,2.9,21.2,2.9,21.2
				C101.1,45.7,96.9,50.2,92.6,54.7z"/>
			<path fill="#DD6C6C" d="M91.5,214.1c0,0,2.5,8-0.3,27.1c0,0,12.6,8-1.2,9c0,0-23.9,0.5-22-8.8c0,0,2.9-24.7,0.9-33.7L91.5,214.1z
				"/>
			<path fill="#DD6C6C" d="M117.8,205.5c0,0,3.7,16.3,0,35c0,0,20.4,11.4-8,6.6c0,0-13.8-1-12.6-9.8c0,0,3.3-20.1-2.3-28.5
				L117.8,205.5z"/>
			<path fill="#DD6C6C" d="M104.6,69c0,0,42.3,35,43.2,72.3c0,0,0.8,8.3-7,7.9c0,0-5.9-0.6-5.6-6.9c0,0-5.1,0.2-2.9-4.8
				c0,0,1-2.7,0.1-6.1c-4.6-14.1-22.5-35.7-32-40.5L104.6,69z"/>
			<path fill="#DD6C6C" d="M75.2,95.2c-0.4,0.3-0.8,0.4-1.5,0.8c-0.7,0.4-1.4,0.8-2.1,1.2c-1.3,0.8-2.5,1.6-3.6,2.5
				c-2.2,1.6-4.2,3.5-6,5.5c-3,3.4-5.5,7.3-6.9,11.6c-0.8,2.4-1.2,4.9-1.2,7.4c-0.1,3.6,1.5,6.7,1.5,6.7c2.5,4.8-2.6,5-2.6,5
				c0.7,6.2-5.1,7.2-5.1,7.2c-7.8,0.8-8.7-7.4-8.7-7.4c-1.6-9.2-1.5-18.9,1.2-27.9c2.1-6.8,5.7-13,10.4-18.2
				c3.8-4.1,8.2-7.5,13-10.3c2.9-1.6,5.8-2.9,8.9-4.1c0.8-0.3,1.4-0.5,2.2-0.1c0.8,0.4,1.1,2.2,1.3,3c0.4,1.3,0.8,2.5,1.1,3.8
				c0.6,2.6,0.9,5.3,0.9,7.9c0,1.5-1,3-1.9,4.2C75.8,94.7,75.5,95,75.2,95.2z"/>
			<path fill="#DD6C6C" d="M110.5,72.2c0,0-18.3-13.4-34.4,1.2c0,0-14.9,15.3-10.5,51.9C65.6,125.3,187.3,138.1,110.5,72.2z"/>
			<path fill="#DD6C6C" d="M107.2,63.9c0,0,0.6-14.9-1.8-22.6c-0.9-3.1-2.7-4.5-6.2-4.2l-18.4,1.4c0,0-6.3,0.1-5.6,9.1
				c0,0,2.3,24.1,1.7,32C77,79.6,109,108.3,107.2,63.9z"/>
			<path fill="#D46F6D" d="M85.8,100c0,0.8,0.6,1.5,1.4,1.5c0.8,0,1.5-0.6,1.5-1.4c0-0.8-0.6-1.5-1.4-1.5
				C86.5,98.5,85.9,99.1,85.8,100z"/>
			<path fill="#FF3551" d="M96.4,133.2c-9.7-0.6-21-1.7-29.1-6.1C59.9,123,70,117,72.2,111c8.8-23.9-1.2-37,2.6-39.7
				c5.5-4,12.6,20.3,18.7,25.2c5.7,4.6,14.3,4.3,17.7,4.3c31.4,0.4,7.4-19.7-4.3-31.7c0,0,29.7,17.7,35.9,31.2
				c11.7,25.3-24.1,34.5-42,33.3C99.3,133.4,97.9,133.3,96.4,133.2z"/>
			<g>
				<path fill="#DE262B" d="M121.8,119.7c-2,5.1-6.5,9-13.2,11.5c-0.7,0.2-17.9,6-26.9-1.7l1.2-1.4c8.1,7,24.9,1.4,25,1.4
					c6.2-2.2,10.2-5.7,12-10.4c3.1-7.7-1.1-16.1-1.2-16.2l1.7-0.8C120.7,102.3,125.2,111.1,121.8,119.7z"/>
			</g>
			<g>
				<path fill="#D4145A" d="M119.8,98.4l-1.7,0.9c0-0.1-3.9-7.5-11.6-9.8l0.5-1.8C115.6,90.1,119.6,98,119.8,98.4z"/>
			</g>
			<g>
				<path fill="#702626" d="M91.7,58.9c0,0,1.6-3.8,4.1-3.9c1.1,0,1.1,0.8,2.1,0.9c1,0,1-0.9,2.1-0.9c2.5,0,4.1,3.9,4.1,3.9
					s-0.7,5.8-6.2,5.8v0c0,0,0,0,0,0c0,0,0,0,0,0C92.4,64.7,91.7,58.9,91.7,58.9z"/>
				<path fill="#75ABAC" d="M95.7,59.4c0,0.1,1,1.3,2.1,1.3c1.2,0,2.1-1.2,2.1-1.3c0-0.1-1-1.3-2.1-1.3C96.7,58,95.7,59.2,95.7,59.4
					z"/>
				<circle fill="#FFFFFF" cx="95.1" cy="61.8" r="0.5"/>
				<circle fill="#FFFFFF" cx="94.3" cy="60.6" r="0.3"/>
			</g>
			<g>
				<g>
					<g>
						<path fill="#CADB25" d="M105.4,43.8c-3.1-0.1-7.2,2.2-4.2,5.9c2.5,3.2,7.9,2.3,8.7-1.4C110.5,45.3,107.9,43.9,105.4,43.8z"/>
					</g>
					<g>
						<path fill="#CADB25" d="M89.2,44.4c-4.6-0.1-10.9,2.8-6.4,7.4c3.7,3.8,11.6,2.5,12.9-2C96.7,46.2,93,44.4,89.2,44.4z"/>
					</g>
					<g>
						<g>
							<path fill="#36162D" d="M90,54.2c-2.7,0.4-5.1,0.1-7-0.8l0,0c-2-0.9-3.3-2.4-3.4-4.3l0,0c-0.2-1.8,0.8-3.3,2.4-4.2l0,0
								c1.5-0.9,3.5-1.3,5.6-1.3l0,0c2,0,4.1,0.1,5.8,0.6l0,0c1.6,0.5,3,1.5,3.1,3.1l0,0c0,0,0,0.1,0,0.1l0,0l-0.6,0l0.6,0
								C96.7,50.9,93.9,53.7,90,54.2L90,54.2C90,54.2,90,54.2,90,54.2L90,54.2z M83,46.1c-1.2,0.7-1.8,1.6-1.7,3l0,0
								c0.1,1.3,1,2.4,2.6,3.2l0,0c1.5,0.7,3.6,1,6,0.7l0,0c3.3-0.5,5.6-2.6,5.5-5.4l0,0l0,0c0,0,0-0.1,0-0.1l0,0
								c-0.1-1-0.9-1.6-2.3-2l0,0c-1.4-0.4-3.5-0.6-5.3-0.5l0,0c0,0,0,0,0,0l0,0C85.8,45,84.1,45.4,83,46.1L83,46.1z"/>
						</g>
						<path fill="#36162D" d="M89.9,43.8c-0.5-0.5-6.5,0-7.5,0l-2.1,0.3c-1.8,0.1-3.2,1.1-3.1,2.3c0.1,1,1.3,1.8,2.8,1.9
							C80.8,46.3,83.1,44.5,89.9,43.8z"/>
					</g>
					<g>
						<g>
							<path fill="#36162D" d="M99.6,47.3L99.6,47.3c0,0,0-0.1,0-0.1l0,0c-0.1-1.6,0.9-2.6,2.1-3.2l0,0c1.2-0.6,2.6-0.8,3.9-0.8l0,0
								c1.3,0,2.4,0.2,3.3,0.8l0,0c0.9,0.6,1.5,1.5,1.6,2.8l0,0c0.1,1.3-0.3,2.5-1.2,3.4l0,0c-0.9,0.9-2.2,1.6-3.8,1.9l0,0
								c0,0,0,0,0,0l0,0C102.7,52.4,100,50.5,99.6,47.3L99.6,47.3z M105.4,50.9c1.5-0.2,2.6-0.8,3.4-1.6l0,0c0.7-0.8,1-1.7,0.9-2.6
								l0,0c-0.1-1-0.5-1.5-1.1-2l0,0c-0.7-0.4-1.7-0.7-2.8-0.6l0,0c-1.2,0-2.5,0.3-3.6,0.8l0,0c-1.1,0.5-1.6,1.2-1.5,2.1l0,0
								c0,0,0,0,0,0.1l0,0l-0.5,0.1l0.5-0.1C101,49.7,103.1,51.2,105.4,50.9L105.4,50.9z"/>
						</g>
						<path fill="#36162D" d="M104.2,43.4c0.3-0.4,3.9-0.3,4.4-0.3l1.1,0.1c0.8,0,1.5,0.6,1.6,1.4c0.1,0.7-0.4,1.3-1.1,1.5
							C109.7,44.8,108.4,43.6,104.2,43.4z"/>
					</g>
					<path fill="#36162D" d="M96,47c0.1,0.6-0.1,1.4-0.3,2.1c0.1-0.1,0.7,0,0.8-0.2c1.8-2.7,3.9,0,3.9,0l-0.2-2.3L96,47z"/>
				</g>
			</g>
			<line fill="none" stroke="#36162D" stroke-width="3.101" stroke-linecap="round" x1="79.6" y1="46.6" x2="74.4" y2="49.2"/>
		</g>
		<path fill="#C05035" d="M106.8,36c-9.2,3.8-18.2,7.9-27.7,10.7c-2.7,0.8-5.5,1.5-8.3,2.1c-1.4,0.3-2.8,0.5-4.2,0.7
			c-1.5,0.2-3,0.4-4.4,0.4c-5.2,0-10.1-2.1-15-3.5c-1.5-0.4-3-0.9-4.6-1c-0.1,0-0.3,0-0.4,0c5.7-0.7,11.5-0.9,17.2-1.9
			c1.4-0.2,2.8-0.5,4.1-0.9c0.7-0.2,1.6-0.4,2.2-0.9c1.8-1.4,3.8-2.6,5.8-3.6c3.8-2,7.8-3.4,12-4.1c4-0.7,8.1-0.9,12.1-0.7
			c3.7,0.1,7.3,0.5,11,0.5c0.9,0,1.8-0.1,2.8-0.1c2.6-0.1,5.1-0.4,7.6-0.9C113.5,33.4,110.2,34.6,106.8,36z"/>
		<path fill="#C1272D" d="M103.7,32.5c-0.1-0.5-0.2-0.9-0.3-1.4c-5.1-1.4-10.5-2.2-15.8-2c-5.1,0.3-10,1.5-14.5,3.9
			c-2.8,1.5-5.4,3.5-7.7,5.6c0,0.3,0,0.6,0.1,0.9c0.1,0.7,0.1,1.3,0.2,2c1.6-1.2,3.3-2.3,5-3.2c3.6-2,7.4-3.5,11.3-4.3
			c4-0.8,8.1-1.1,12.2-1c3.2,0.1,6.4,0.3,9.6,0.5C103.8,33.2,103.7,32.9,103.7,32.5z"/>
		<path fill="#C05035" d="M39.6,45.7c1,0,2-0.1,3.1-0.1c1.2,0,2.3,0.2,3.5,0.6c2.1,0.6,4.2,1.4,6.3,2c2.5,0.8,5.1,1.6,7.7,1.8
			c2.8,0.2,5.6-0.1,8.3-0.6c3.6-0.6,7.1-1.4,10.6-2.5c3.9-1.6,18.2-6.8,22.7-8.6c3-1.3,6-2.6,9.1-3.7c0.8-0.3,1.7-0.7,2.6-0.9
			c2.1-0.4,3.9-0.6,5.9-1.4c-2.1-0.2-3.7,0.6-5.7,0.8c-1.4,0.2-2.8,0.3-4.1,0.5c-1.4,0.1-2.8,0.1-4.3,0.1c-0.4,0-0.9,0-1.3,0
			c-0.1-1.8-0.6-3.6-1.4-5.3c-1.9-4-5.4-7.1-9.4-8.8c-4.4-1.9-9.4-2.2-14-1c-2.2,0.6-4.4,1.6-6.2,3.1c-1.8,1.4-3.3,3-4.6,4.9
			c-1.5,2.2-2.5,4.7-2.9,7.3c-0.4,2.6-0.2,5.3,0.1,7.9c-0.3,0.2-0.8,0.4-1.1,0.5c-0.6,0.2-1.2,0.4-1.8,0.5c-1.4,0.4-2.9,0.7-4.3,0.9
			c-3.3,0.5-6.6,0.8-9.9,1.1c-1.4,0.1-9.2-0.7-9.3,1.3c1.1-0.2,2.2-0.6,3.3-1 M67.7,27.5c0.1-0.2,0.3-0.4,0.4-0.6
			C68,27.1,67.9,27.3,67.7,27.5z M68,36.4c-0.3,0.3-0.7,0.5-1,0.8c0.1,0,0.1-0.1,0.1-0.1C67.4,36.8,67.7,36.6,68,36.4z M94.4,20.2
			c0.1,0.1,0.3,0.1,0.4,0.2C94.7,20.4,94.5,20.3,94.4,20.2z M95.8,21c0.1,0.1,0.3,0.2,0.4,0.3C96.1,21.2,95.9,21.1,95.8,21z
			 M89.2,18.4c0.5,0.1,0.9,0.2,1.4,0.4C90.1,18.6,89.6,18.5,89.2,18.4z M91.1,18.9c0.6,0.2,1.3,0.4,1.9,0.7
			C92.4,19.3,91.8,19.1,91.1,18.9z M98,29.8c-0.5-0.1-1.1-0.2-1.6-0.3C96.9,29.7,97.4,29.8,98,29.8z M95.6,29.5
			c-0.8-0.1-1.5-0.2-2.3-0.3C94.1,29.3,94.9,29.4,95.6,29.5z M101.3,30.6c0.7,0.2,1.4,0.4,2.1,0.5c-0.7-0.2-1.5-0.4-2.3-0.6
			C101.2,30.5,101.2,30.5,101.3,30.6z M100.4,30.3c-0.5-0.1-1-0.2-1.5-0.3C99.3,30.1,99.8,30.2,100.4,30.3z M86.4,18
			c-0.7-0.1-1.3-0.1-2-0.1C85.1,17.9,85.8,17.9,86.4,18z M88.5,18.2c-0.5-0.1-0.9-0.1-1.4-0.2C87.5,18.1,88,18.2,88.5,18.2z
			 M78.5,30.7c-0.6,0.2-1.1,0.4-1.7,0.6C77.3,31.1,77.9,30.9,78.5,30.7z M76.2,31.6c-0.4,0.2-0.7,0.3-1.1,0.5
			C75.5,31.9,75.8,31.7,76.2,31.6z M74.5,32.3c-0.3,0.2-0.7,0.3-1,0.5C73.8,32.7,74.1,32.5,74.5,32.3z M72.9,33.2
			c-0.3,0.2-0.7,0.4-1,0.6C72.2,33.5,72.5,33.3,72.9,33.2z M71.3,34.1c-0.4,0.2-0.8,0.5-1.1,0.7C70.5,34.6,70.9,34.3,71.3,34.1z
			 M69.8,35.1c-0.5,0.3-1,0.7-1.4,1.1C68.8,35.7,69.3,35.4,69.8,35.1z M70.6,23.8c-0.2,0.2-0.5,0.5-0.7,0.7
			C70.1,24.3,70.3,24.1,70.6,23.8z M68.7,26c0.2-0.3,0.4-0.5,0.6-0.7C69.1,25.5,68.9,25.7,68.7,26z M65.4,38.7
			c2.3-2.2,4.9-4.1,7.7-5.6c4.5-2.4,9.4-3.7,14.5-3.9c5.3-0.3,10.7,0.6,15.8,2c0.2,0.8,0.4,1.6,0.4,2.5c-3.2-0.1-6.4-0.4-9.6-0.5
			c-4.1-0.1-8.2,0.2-12.2,1c-4,0.8-7.8,2.3-11.3,4.3c-1.7,1-3.5,2-5,3.2C65.5,40.7,65.4,39.7,65.4,38.7z M59.4,43.5
			c1.4-0.2,2.8-0.5,4.1-0.9c0.7-0.2,1.6-0.4,2.2-0.9c1.8-1.4,3.8-2.6,5.8-3.6c3.8-2,7.8-3.4,12-4.1c4-0.7,8.1-0.9,12.1-0.7
			c3.7,0.1,7.3,0.5,11,0.5c0.8,0,1.7,0,2.6-0.1c0,0,0,0,0,0c2.6-0.1,5.4-0.4,7.9-0.9c-3.5,0.8-6.9,2-10.2,3.4
			c-9.2,3.8-18.2,7.9-27.7,10.7c-2.7,0.8-5.5,1.5-8.3,2.1c-1.4,0.3-2.8,0.5-4.2,0.7c-1.5,0.2-3,0.4-4.4,0.4c-5.2,0-10.1-2.1-15-3.5
			c-1.5-0.4-3-0.9-4.6-1c-0.1,0-0.3,0-0.4,0C47.9,44.7,53.7,44.5,59.4,43.5z"/>
		<path fill="#FF3551" d="M41.7,199.4c0.4-1.5,0.4-3.2,0.4-4.7c0-2.9-0.1-5.8,0.3-8.7c0.6-4.5,1.7-9.2,2.8-13.6
			c0.7-2.8,1.6-5.6,2.5-8.3c0.2-0.5,2.3-6.7,3-5.4c1.1,2.1,3.9,2.7,6,3.3c5.1,1.5,9.7,1.6,15,1.6c3.6,0,7.1,0.2,10.7,0.3
			c12.1,0.5,24.3,0.9,36-1.9c4.2,8.9,7.8,18,10.8,27.4c0.1,0.3,0.2,0.7,0.1,1c-0.1,0.4-0.5,0.6-0.8,0.9c-3.6,2.2-7.3,4.4-11.4,5
			c-2.3,0.3-4.7,0-7,0.3c-3.1,0.4-6,1.8-8.9,2.7c-7.2,2.2-14.8,1.8-22.2,1.5c-6.1-0.3-12.1,1.1-18.1,1.4c-6.1,0.4-12.3-0.5-18.4-1.2
			c-0.3,0-0.6-0.1-0.8-0.3c-0.3-0.3-0.2-0.7-0.1-1.1C41.6,199.5,41.6,199.4,41.7,199.4z"/>
		
			<ellipse transform="matrix(-0.9598 -0.2808 0.2808 -0.9598 169.767 318.021)" fill="#D4145A" cx="107.7" cy="146.8" rx="0.8" ry="1.9"/>
	</g>
</g>
<g id="text">
</g>
</svg>
