<?xml version="1.0" encoding="utf-8"?>
<!-- Generator: Adobe Illustrator 17.1.0, SVG Export Plug-In . SVG Version: 6.00 Build 0)  -->
<!DOCTYPE svg PUBLIC "-//W3C//DTD SVG 1.1//EN" "http://www.w3.org/Graphics/SVG/1.1/DTD/svg11.dtd">
<svg version="1.1" xmlns="http://www.w3.org/2000/svg" xmlns:xlink="http://www.w3.org/1999/xlink" x="0px" y="0px" width="171px"
	 height="142px" viewBox="0 0 171 142" enable-background="new 0 0 171 142" xml:space="preserve">
<g id="graphic_bg">
</g>
<g id="area_elements">
</g>
<g id="charachters">
	<g>
		<path d="M134,73.8c0,0,12.8-0.1,13.9-13.4c0,0,4.2,19.2-11,19.4L134,73.8z"/>
		<path fill="#FFFFFF" d="M28.8,45.8c2.3-6.4,5.6-30.9,29.2-28.4c7.5,0.8,22.5,5.5,26.4,17.6c3.7,11.6,6.1,40.8-4.3,47.2l14.2,1.1
			c-15.7,21.4-37.1,13.8-37.1,13.8C45.7,95,40.9,91.9,34,87.4C19.3,74.8,19.7,63.2,21.5,55.1C21.8,50.2,27.5,49.6,28.8,45.8z"/>
		<path fill="#FFFFFF" d="M83.8,61.1c0,0,55.5-4.4,57.4,22.7c0,0,0,24.4-24.8,23.1c0,0-52.7-2.5-69.4-13.9C47,93,73.5,71,83.8,61.1z
			"/>
		<path fill="#FFFFFF" d="M59.2,96.5c0,0,0.4,13.3,0.5,17c0,0-5.7,0.3-4.6,6.2c0,0,0.6,4.3,7.4,2.8l6.3-0.9l0-25L59.2,96.5z"/>
		<path fill="#FFFFFF" d="M74.8,91.9c0,0,1.1,20.2,1.1,23.9c0,0-5.7,0.3-4.6,6.2c0,0,0.6,4.3,7.4,2.8l6.3-0.9L84.3,92L74.8,91.9z"/>
		<path fill="#FFFFFF" d="M103.8,92.8c0,0-4,14.2-5.1,17.8c0,0-5.6-1.4-6.2,4.5c0,0-0.7,4.2,6.2,4.9l6.2,1l7.9-25.3L103.8,92.8z"/>
		<path fill="#FFFFFF" d="M120.4,92.3c0,0-5,19.6-6.1,23.2c0,0-5.6-1.4-6.2,4.5c0,0-0.7,4.2,6.2,4.9l6.3,1l8.9-30.7L120.4,92.3z"/>
		
			<ellipse transform="matrix(0.9759 0.2182 -0.2182 0.9759 12.5186 -3.7679)" fill="#FF1779" cx="23.3" cy="54.8" rx="2.6" ry="2.5"/>
		<path d="M75.4,23.5c0,0-17.5,56.4,10.7,53C86.1,76.5,96.4,36.6,75.4,23.5z"/>
		<g>
			<path fill="#FF1779" d="M35,72.8v-3.1c0-1-1.1-1.7-2.1-1.7h-0.5c-1,0-2.4,0.6-2.4,1.7v3C32,72.5,34,72.7,35,72.8z"/>
			<path d="M36.4,72.7c-0.1-0.1-0.2-0.2-0.3-0.2c-0.1,0-0.5-0.1-1.3-0.2c-1-0.1-2.6-0.3-4.3-0.2c-2.1,0.1-3.7,0.7-4.8,1.5
				c-0.1,0.1-0.2,0.2-0.2,0.4c0,0.1,0,0.3,0.1,0.4l0.4,0.5c0.1,0.1,0.3,0.2,0.4,0.2c0.1,0,0.2,0,0.3-0.1c0.9-0.6,2.2-1,3.9-1.2
				c1.6-0.1,3.2,0,4.1,0.2c0.6,0.1,1,0.2,1.1,0.2c0.3,0.1,0.6-0.1,0.6-0.4l0.2-0.7C36.5,73,36.5,72.8,36.4,72.7z"/>
		</g>
		
			<line fill="none" stroke="#000000" stroke-width="2.1168" stroke-linecap="round" stroke-linejoin="round" stroke-miterlimit="10" x1="36.4" y1="45.7" x2="31.4" y2="42.8"/>
		
			<line fill="none" stroke="#000000" stroke-width="2.1168" stroke-linecap="round" stroke-linejoin="round" stroke-miterlimit="10" x1="44.9" y1="46.6" x2="53.3" y2="43.6"/>
		
			<line fill="none" stroke="#000000" stroke-width="2.1168" stroke-linecap="round" stroke-linejoin="round" stroke-miterlimit="10" x1="35.8" y1="46.4" x2="30.5" y2="45.9"/>
		
			<line fill="none" stroke="#000000" stroke-width="2.1168" stroke-linecap="round" stroke-linejoin="round" stroke-miterlimit="10" x1="44.9" y1="47.2" x2="54.1" y2="46.6"/>
	</g>
</g>
<g id="text">
</g>
</svg>
