<?xml version="1.0" encoding="utf-8"?>
<!-- Generator: Adobe Illustrator 17.1.0, SVG Export Plug-In . SVG Version: 6.00 Build 0)  -->
<!DOCTYPE svg PUBLIC "-//W3C//DTD SVG 1.1//EN" "http://www.w3.org/Graphics/SVG/1.1/DTD/svg11.dtd">
<svg version="1.1" xmlns="http://www.w3.org/2000/svg" xmlns:xlink="http://www.w3.org/1999/xlink" x="0px" y="0px" width="158.5px"
	 height="187.4px" viewBox="0 0 158.5 187.4" enable-background="new 0 0 158.5 187.4" xml:space="preserve">
<g id="graphic_bg">
</g>
<g id="area_elements">
</g>
<g id="charachters">
	<g>
		<path d="M92.1,173.9c-4.2-1.9-11.1-4.6-9.6-9.2c1.5-4.5,7.2-3.3,10.8-3.1c3.9,0.3,7.8,0.9,11.6,1.9c1,0.3,2,0.4,2.8,0.7
			c0.9,0.4,1.7,1,2.1,2.2c1,2.6,0.6,6-0.7,8.5c-3,5.5-11.2,1.8-15.3-0.3C93.3,174.5,92.7,174.2,92.1,173.9z"/>
		<path d="M55.5,173.9c4.2-1.9,11.1-4.6,9.6-9.2c-1.5-4.5-7.2-3.3-10.8-3.1c-3.9,0.3-7.8,0.9-11.6,1.9c-1,0.3-2,0.4-2.8,0.7
			c-0.9,0.4-1.7,1-2.1,2.2c-1,2.6-0.6,6,0.7,8.5c3,5.5,11.2,1.8,15.3-0.3C54.2,174.5,54.8,174.2,55.5,173.9z"/>
		<g>
			<path fill="#C69C6D" d="M97.3,95.1c0-0.4-0.1-0.9-0.5-1.4c-1.1-1.5-6.9-2-8.6-2.3c-12.4-2-31.1-3-42.7,3.1
				c-9.9,5.2-14.4,21-14.9,31.2c-0.1,2.5-0.5,7.1,3.5,8.7c2.3,0.9,5.2,0.8,5.2-1.7c0-0.8,0-1.6,0.1-2.3c0.8,0.4,2,0.5,2.5,0.2
				c1.1-0.8-2.1-4.6-2.1-5.5c-2.8-8.5,8.6-22.3,13.5-25.8c0,0,0.1,58.8,0.2,59.1c-4.6,0.2-15.9,1.4-15.1,7.9c0,0,0.2,3,3.6,3.8
				c0,0-3.3,2.3-1,4.1c0,0,3.3,3.3,10.4-1l9.4-4.3c0,0,3.8-1.5,3.3-7.4v-17.9c0.6-4.8,4.7-8.5,9.7-8.5c4.8,0,8.8,3.4,9.6,7.9v18.5
				c-0.5,5.9,3.3,7.4,3.3,7.4l9.4,4.3c7.1,4.3,10.4,1,10.4,1c2.3-1.8-1-4.1-1-4.1c3.5-0.6,3.6-3.8,3.6-3.8
				c0.8-6.5-10.5-7.6-15.1-7.8c1.5-9.3,0.1-20,0.1-29.4c0-6.7,0-13.3,0-20c0-2.2-0.2-4.6,0-6.8c0.2-1.5,0.2-2.2,0.9-3.5
				C95.6,97.5,97.3,96.5,97.3,95.1z"/>
		</g>
		<g>
			<path fill="#C69C6D" d="M116.6,61.1c0,22-19.6,39.9-43.8,39.9C48.6,101,29,83.2,29,61.1c0-22,19.6-39.9,43.8-39.9
				C97,21.2,116.6,39.1,116.6,61.1z"/>
			<circle cx="73.3" cy="68.7" r="2.2"/>
			<g>
				<path d="M67.4,83.5c1.7-1.5,3.8-2.3,6-2.3c2.2,0,4.4,0.8,6,2.3L79,84c-1.6-1.4-3.5-2.1-5.6-2.1c-2.1,0-4.1,0.7-5.6,2.1
					L67.4,83.5z"/>
			</g>
			<ellipse fill="#FFFFFF" cx="53.5" cy="59" rx="10" ry="11.3"/>
			<ellipse cx="52.6" cy="57.4" rx="5.7" ry="7.4"/>
			<ellipse fill="#FFFFFF" cx="93.6" cy="59" rx="10" ry="11.3"/>
			<ellipse cx="92.1" cy="58" rx="5.7" ry="7.4"/>
			<path fill="#C69C6D" d="M42,51.4l24.2,8.3C66.2,59.7,56.2,34.7,42,51.4z"/>
			<path fill="#C69C6D" d="M81,59.7l27.1-9.1C108,50.6,83.2,38.3,81,59.7z"/>
			<path d="M84.9,40.2c0,0-8.9,5.3-28.8,9.7l15.3-5.7L49,50.8L65.8,44l-19.3,4l12.7-4l-17.4,2.1l10.4-4.9
				C52.2,41.1,73,38.5,84.9,40.2z"/>
			<path d="M95.9,80.9c0,0,4.2-5.1,7.8-7.2C103.7,73.7,99.5,77.7,95.9,80.9z"/>
			<path d="M98,80.5c0,0,4.2-5.1,7.8-7.2C105.8,73.3,101.6,77.3,98,80.5z"/>
			<path d="M98.4,73.7c0,0,5.1,3.6,6.2,4.9C104.6,78.6,100.6,76.2,98.4,73.7z"/>
			<path d="M97.8,75.4c0,0,5.1,3.6,6.2,4.9C104.1,80.3,100.1,77.9,97.8,75.4z"/>
			<path fill="#FFFFFF" d="M41.8,73.5c0,0-2.4,4.9,0.1,5.3C42,78.8,44.7,79.3,41.8,73.5z"/>
			<path fill="#FFFFFF" d="M45.4,82.2c0,0-2.4,4.9,0.1,5.3C45.6,87.5,48.3,88,45.4,82.2z"/>
		</g>
		<path fill="#C1272D" d="M53,124.9h41l1.9,21H79c0,0-1.2-11-5.2-11s-7.9,3.7-7.6,11H50.8L53,124.9z"/>
		<path fill="none" stroke="#000000" stroke-width="3" stroke-linecap="round" stroke-miterlimit="10" d="M40.2,169.6
			c2.4-2.4,5.1-2.1,8.2-1.3c2,0.5,5.3,1.4,6.5,3.3"/>
		<path fill="none" stroke="#000000" stroke-width="3" stroke-linecap="round" stroke-miterlimit="10" d="M46.4,167.8
			c1.3-2.7,1.1-6-0.5-8.5"/>
		<path fill="none" stroke="#000000" stroke-width="3" stroke-linecap="round" stroke-miterlimit="10" d="M107.3,169.6
			c-2.4-2.4-5.1-2.1-8.2-1.3c-2,0.5-5.3,1.4-6.5,3.3"/>
		<path fill="none" stroke="#000000" stroke-width="3" stroke-linecap="round" stroke-miterlimit="10" d="M101.1,167.8
			c-1.3-2.7-1.1-6,0.5-8.5"/>
		<path fill="#662D91" d="M137.4,99.5c-2.1-4.2-1.7-8.9,0.6-12.6c-8.6-1.4-20.7,0.9-32.8,6.8C85.6,103.3,68.3,121.4,73,131
			c4.7,9.6,29.7,7.1,49.2-2.5c12.1-5.9,21.2-14.1,25.4-21.8C143.4,106.3,139.4,103.7,137.4,99.5z"/>
		<g>
			<path fill="#C69C6D" d="M104.3,109.4c3.7,5,5.9,11.1,4,17.2c-0.6,2.1-4.1,5-2.5,5.9c0,0,0.9,0.7,3-0.3c0,0.8,0,1.7,0,2.5
				c0,2.6,9,2.7,8.9-7.4c-0.2-14.4-7-30.6-22.6-33.5c-1-0.2-2-0.3-3,0c-1,0.3-1.9,0.9-2.1,1.9c-0.2,0.8,0.1,1.7,0.5,2.4
				c0.5,0.7,1.2,1.2,1.9,1.7c2.2,1.6,4.8,2.6,7,4.2C101.2,105.3,102.9,107.5,104.3,109.4z"/>
		</g>
	</g>
</g>
<g id="text">
</g>
</svg>
