<?xml version="1.0" encoding="utf-8"?>
<!-- Generator: Adobe Illustrator 17.1.0, SVG Export Plug-In . SVG Version: 6.00 Build 0)  -->
<!DOCTYPE svg PUBLIC "-//W3C//DTD SVG 1.1//EN" "http://www.w3.org/Graphics/SVG/1.1/DTD/svg11.dtd">
<svg version="1.1" xmlns="http://www.w3.org/2000/svg" xmlns:xlink="http://www.w3.org/1999/xlink" x="0px" y="0px" width="192px"
	 height="200.2px" viewBox="0 0 192 200.2" enable-background="new 0 0 192 200.2" xml:space="preserve">
<g id="graphic_bg">
</g>
<g id="area_elements">
</g>
<g id="charachters">
</g>
<g id="text">
	<g>
		<path fill="#FFFFFF" d="M96.1,3.6c0,0-36.5-1.9-49.5,35.9C32.6,80,4.9,104,4.9,104s12.9,16,30.3,11.5c17.3-4.5,20.4,12,20.4,12
			s59.6-13.7,71.6-10.6c12,3.1,33.8,2.6,32.2-1.1c-6.4-15.1,3.9-90.3-34.6-105.7C124.9,10.1,105.8,1.3,96.1,3.6z"/>
		<g>
			<path fill="#1A1617" d="M97.8,189.6c0,5-5.7,6-12.7,6c-7,0-12.7-1.1-12.7-6c0-5,5.7-9,12.7-9C92.1,180.6,97.8,184.6,97.8,189.6z"
				/>
			<path fill="#1A1617" d="M126.6,189.6c0,5-5.7,6-12.7,6c-7,0-12.7-1.1-12.7-6c0-5,5.7-9,12.7-9
				C120.9,180.6,126.6,184.6,126.6,189.6z"/>
		</g>
		<path fill="#1A1617" d="M46.9,95.8c0,15.2,23.5,27.5,52.6,27.5c29,0,52.6-12.3,52.6-27.5c0-15.2,6.3-91.3-52.6-91.3
			C40.6,4.5,46.9,80.6,46.9,95.8z"/>
		<path fill="#F3C09D" d="M84.5,95.4c0,8.2,6.7,14.9,14.9,14.9c8.2,0,14.9-6.7,14.9-14.9c0-8.3-6.7-14.9-14.9-14.9
			C91.2,80.4,84.5,87.1,84.5,95.4z"/>
		<path fill="#FFFFFF" d="M34.5,166.2C45.7,130.1,78.6,110,78.6,110C72.7,98.1,78,79.1,78,79.1l21.5-0.7l0,0l0,0h0l0,0l21.5,0.7
			c0,0,5.2,19.1-0.7,30.9c0,0,33,20.1,44.1,56.3c0,0,2.4,22.2-64.9,22.2l0,0h0l0,0C32.1,188.5,34.5,166.2,34.5,166.2z M87.3,84.4
			c0,6.7,5.4,12.2,12.2,12.2c6.7,0,12.2-5.4,12.2-12.2c0-6.7-5.4-12.2-12.2-12.2C92.8,72.3,87.3,77.7,87.3,84.4z"/>
		<g>
			<path fill="#FCCBA8" d="M105.6,23.1c-5.4,16-28.8,29.1-47.3,30.7c-1.1,0.1-2.2,0.1-3.3,0.2c4.3,21.4,24.7,36.6,47.8,34.6
				c23.1-2.1,40.5-20.6,40.9-42.5c-1.1,0.2-2.2,0.3-3.3,0.4C122.1,48.1,113.8,37.9,105.6,23.1z"/>
		</g>
		<g>
			<g>
				<g>
					<path fill="#1A1617" d="M62.4,70.3c-2.2-3.1-4-6.4-5.3-10C58.4,63.9,60.2,67.2,62.4,70.3z M143.4,52.5
						c-0.8,4.3-2.2,8.5-4.2,12.3C141.2,61,142.7,56.8,143.4,52.5z M143.9,46c0-1,0-2.1-0.1-3.1c-2-22.6-23.5-39.1-48-36.9
						C71.2,8.2,53,28.3,55,50.8c0.1,1,0.2,2.1,0.4,3.1c1,0,2.1-0.1,3.1-0.2c18.5-1.6,41.9-14.7,47.3-30.7
						c8.2,14.8,16.4,25,34.9,23.4C141.8,46.3,142.9,46.2,143.9,46z"/>
				</g>
			</g>
			
				<radialGradient id="SVGID_1_" cx="66.5734" cy="291.9619" r="7.0802" gradientTransform="matrix(0.9961 -8.880000e-02 8.880000e-02 0.9961 -10.5459 -212.1604)" gradientUnits="userSpaceOnUse">
				<stop  offset="0" style="stop-color:#F59579"/>
				<stop  offset="1" style="stop-color:#FCCBA8"/>
			</radialGradient>
			<path fill="url(#SVGID_1_)" d="M88.7,72.1c0.3,3.9-2.5,7.3-6.4,7.7c-3.9,0.4-7.3-2.5-7.7-6.4c-0.4-3.9,2.5-7.3,6.4-7.7
				C85,65.4,88.4,68.2,88.7,72.1z"/>
			
				<radialGradient id="SVGID_2_" cx="106.6562" cy="291.9601" r="7.0802" gradientTransform="matrix(0.9961 -8.880000e-02 8.880000e-02 0.9961 -10.5459 -212.1604)" gradientUnits="userSpaceOnUse">
				<stop  offset="0" style="stop-color:#F59579"/>
				<stop  offset="1" style="stop-color:#FCCBA8"/>
			</radialGradient>
			<path fill="url(#SVGID_2_)" d="M128.7,68.6c0.3,3.9-2.5,7.3-6.4,7.7c-3.9,0.3-7.3-2.5-7.7-6.4c-0.3-3.9,2.5-7.3,6.4-7.7
				C124.9,61.8,128.3,64.7,128.7,68.6z"/>
		</g>
		<g>
			<path fill="none" d="M99.5,78.4L99.5,78.4L99.5,78.4l10.7,0.3c0.7,1.3,1.2,2.8,1.3,4.3c-0.7,6.1-5.8,10.8-12.1,10.8
				c-6.2,0-11.4-4.7-12.1-10.8c0.2-1.6,0.6-3,1.4-4.3L99.5,78.4z"/>
			<path fill="none" d="M110.2,78.7c-0.6-1-1.3-2-2.1-2.8l2.1,0.1c0.5,0.9,0.8,1.8,1.1,2.8L110.2,78.7z"/>
			<path fill="none" d="M88.8,78.7l-1.1,0c0.2-1,0.6-1.9,1.1-2.8l2.1-0.1C90,76.7,89.3,77.7,88.8,78.7z"/>
			<path fill="#999999" d="M34.8,165.5c1.4,5.5,10.1,20.1,64.7,20.1h0c54.6,0,63.4-14.6,64.7-20.1c0.1,0.2,0.2,0.5,0.2,0.7
				c0,0,2.4,22.2-64.9,22.2h0c-67.4,0-64.9-22.2-64.9-22.2C34.6,166,34.7,165.8,34.8,165.5z"/>
		</g>
		<path fill="#999999" d="M78.6,109.9c0,0.7,9.4,6.1,20.9,6.1c11.6,0,20.9-5.4,20.9-6.1c0-0.7-9.4,1.1-20.9,1.1
			C88,111.1,78.6,109.3,78.6,109.9z"/>
		<g>
			<path fill="#999999" d="M92.5,112c-0.9,3.8,1.5,7.5,5.3,8.4c3.8,0.9,7.5-1.5,8.4-5.3c0.8-3.8-1.5-7.5-5.3-8.4
				C97.1,105.8,93.3,108.2,92.5,112z"/>
			<path fill="#FFFFFF" d="M95.4,112.7c-0.5,2.1,0.8,4.2,3,4.7c2.1,0.5,4.2-0.8,4.7-3c0.5-2.1-0.8-4.2-3-4.7
				C98,109.2,95.9,110.5,95.4,112.7z"/>
		</g>
		<g>
			<g>
				<path fill="#FCCBA8" d="M59,90.4l7.8-10.6L41.3,59.2c0,0-9.7-19-19.5-9.9C12,58.4,35.7,74.8,35.7,74.8L59,90.4z"/>
				<path fill="#FCCBA8" d="M43.2,61.8c0,0,2-12-3.9-11.9c-5.9,0-3.2,12-3.2,12L43.2,61.8z"/>
			</g>
			<path fill="#FFFFFF" d="M54.4,96.4C51.1,89.5,54,81.2,61,77.9c6.9-3.3,15.2-0.3,18.5,6.6c3.3,6.9,0.3,15.2-6.6,18.5
				C65.9,106.3,57.6,103.4,54.4,96.4z"/>
			<path fill="#999999" d="M67.3,80.1c-1.6-3.5-2.5-7.1-8.4-4.3c-5.9,2.8-9.4,7.9-7.8,11.4c1.6,3.5,7.8,4,13.7,1.2
				C70.7,85.6,69,83.6,67.3,80.1z"/>
			<path fill="#FFFFFF" d="M54.4,96.4C51.1,89.5,54,81.2,61,77.9c6.9-3.3,15.2-0.3,18.5,6.6C82.8,91.5,57.6,103.4,54.4,96.4z"/>
		</g>
		<g>
			<g>
				<path fill="#FCCBA8" d="M139.1,91.3l-7.8-10.6l25.5-20.6c0,0,9.7-19,19.5-9.9c9.8,9.1-13.9,25.5-13.9,25.5L139.1,91.3z"/>
				<path fill="#FCCBA8" d="M155,62.6c0,0-2-12,3.9-11.9c5.9,0,3.2,12,3.2,12L155,62.6z"/>
			</g>
			<path fill="#FFFFFF" d="M143.8,97.3c3.3-6.9,0.3-15.2-6.6-18.5c-6.9-3.3-15.2-0.3-18.5,6.6c-3.3,6.9-0.3,15.2,6.6,18.5
				C132.2,107.2,140.5,104.3,143.8,97.3z"/>
			<path fill="#999999" d="M130.8,81c1.6-3.5,2.5-7.1,8.4-4.3c5.9,2.8,9.4,7.9,7.8,11.4c-1.6,3.5-7.8,4-13.7,1.2
				C127.4,86.5,129.2,84.5,130.8,81z"/>
			<path fill="#FFFFFF" d="M143.8,97.3c3.3-6.9,0.3-15.2-6.6-18.5c-6.9-3.3-15.2-0.3-18.5,6.6C115.4,92.4,140.5,104.3,143.8,97.3z"
				/>
		</g>
		<g>
			<g>
				<path fill="#2B388F" d="M70,34c-2.7,2-6.7-0.2-8.2-2.9c0.6,3.3,4.3,6.1,7.6,4.3"/>
			</g>
			<g>
				<path fill="#2B388F" d="M70.8,32.8c-2.5,0.2-5.3-2-5.1-4.7c0,2.5,1.8,5.9,4.5,6.3"/>
			</g>
			<g>
				<path fill="#2B388F" d="M68.1,36.4c-2.2,2.9-7.6,2.7-9.6-0.4c0.6,3.9,10.8,6.7,9.8,1"/>
			</g>
			<g>
				<path fill="#2B388F" d="M129.4,33c2.7,2,6.7-0.2,8.2-2.9c-0.6,3.3-4.3,6.1-7.6,4.3"/>
			</g>
			<g>
				<path fill="#2B388F" d="M128.6,31.7c2.5,0.2,5.3-2,5.1-4.7c0,2.5-1.8,5.9-4.5,6.3"/>
			</g>
			<g>
				<path fill="#2B388F" d="M131.2,35.4c2.2,2.9,7.6,2.7,9.6-0.4c-0.6,3.9-10.8,6.7-9.8,1"/>
			</g>
			<g>
				<path fill="#2B3086" d="M120,78.6c1.1-3.9-1.2-9.4-3.1-12.6c-2.8-4.5-8.6-7.2-13.3-8.1c-9.5-1.9-21,4.1-23.1,13.7
					c-0.8,3.9-2.2,8.6,3.1,9c5.1,0.5,6.6-3.8,14-5.1c3.6-0.6,7.8-0.6,11,0.9c2.4,1.2,8.9,7.2,11.3,2.4c0.2-0.2,0.2-0.3,0.3-0.5"/>
			</g>
			<g>
				<path fill="#1B1042" d="M107.4,70.1c2.2-2,4.3-4.9,3.9-7.7c-0.3-2.1-5.6-4-5.6-4c-1.4,0.5-2.9,1.4-4.4,1.9
					c0.4,0.8,0.3,1.6,0,2.3c1.5,0.4,1,2.2-0.2,2.6c-1.4,0.5-2.6-0.5-2.4-2c0.1-0.3,0.5-0.4,0.6-0.5c0.1-0.3-0.1-0.6,0-0.9
					c0.2-0.9,0.2-1.1-0.5-1.5c-0.9-0.5-2.3-3.7-2.5-2.6c-0.1,1-4,1-5.1,1.7c-0.9,0.6-0.4,1.8-0.5,2.8c-0.3,1.9,0.2,3.8,1.2,5.5
					c1.7,2.6,4.9,3.5,7.9,3.6c0.9,0.1,1.8,0,2.7-0.2C104.1,70.7,106,70.9,107.4,70.1"/>
			</g>
			<g>
				<path fill="#CA2027" d="M102.5,71.1c10.1-4.9,11.2,8.6,11.2,8.6c-7.9-4.1-6.8-4.4-9.5-4.5c-5.3-0.3-6.7,0.4-15.1,3.9
					c-0.2-0.6,0.1,0.4-0.2-0.6C86.7,71.7,98.2,67.4,102.5,71.1z"/>
			</g>
			<g>
				<path fill="#FFFFFF" d="M113,78.9c-0.5-1.4-0.4-3.3-1.2-4.6c-0.4-0.7-2.9-2.4-3.9-1.5c-0.4,0.4-0.8,2.9,0.4,3.6
					c1.2,0.7,2.9,1.5,4.5,2.6"/>
			</g>
			<g>
				<path fill="#FFFFFF" d="M92.2,77.9c-0.3-2.5,0.1-4.4-2.6-3.6c-2.3,0.7-3.1,3.9-2.6,6.1c1.6-0.8,3.2-1.8,5.2-2.4"/>
			</g>
			<g>
				<path fill="#FFFFFF" d="M104.3,57.9c0,1.3,2.4,6.8-2.2,6.2c-1.9-0.2-1.6-5.2-1.6-6.7C101.8,57.5,103.2,57.4,104.3,57.9"/>
			</g>
			<g>
				<path fill="#FFFFFF" d="M96.3,57.8c0,1.3-1.7,5.6,1,6.3c3.8,0.9,2.8-5.3,2.8-6.7C98.9,57.4,97.4,57.3,96.3,57.8"/>
			</g>
			<g opacity="0.56">
				<path fill="#FFFFFF" d="M109.8,73.3c-0.4-3.7-6.5-3.2-8.6-1.4c-1.9-2.8-7.9-2.3-9.1,1c1.4-2.5,7.4-2.1,9,0
					c2.1-1.8,7.1-3,8.5,0.4"/>
			</g>
			<g>
				<path fill="#981A37" d="M83.6,65.2c1.4-2.6,7-8.9,12.1-10.3c4.7-1.3,3.1,1.8,4.7,0.6c4.1-3.1,12.3,3.7,15.7,9.4
					C106.7,54.4,94.4,56.2,83.6,65.2"/>
			</g>
			<g>
				<path fill="#981A37" d="M85.3,80.6c4.7,2.2,12.2,1,15.5-3.5c2.2,3.9,10.6,4.9,14.7,4.3c-0.2-2.2-8-7.2-14.1-6.3
					c-11,1.6-10.6,4.5-15.7,5.7"/>
			</g>
			<g opacity="0.46">
				<path fill="#FFFFFF" d="M88.5,60.6c0.3-2.5,7-6.9,9.6-4.2C94.1,56.7,90.7,57,88.5,60.6"/>
			</g>
			<g>
				<circle fill="#2B388F" cx="83.9" cy="41.7" r="16.4"/>
				<circle fill="#FAF39A" cx="83.6" cy="41.6" r="14.6"/>
				<path opacity="0.33" fill="#CA992C" d="M97.9,38.6c-0.2,5.4-3.4,10.5-8.6,12.9c-7.4,3.3-16,0-19.3-7.4c-0.4-1-0.7-1.9-1-2.9
					c-0.1,2.2,0.3,4.4,1.3,6.4C73.6,55,82.2,58.3,89.6,55C96,52.1,99.3,45.2,97.9,38.6z"/>
				<path opacity="0.45" fill="#FFFFFF" d="M73,39.4C75.5,32,83.5,28,90.9,30.5c1,0.3,1.9,0.7,2.7,1.2c-1.5-1.5-3.3-2.6-5.4-3.3
					c-7.4-2.5-15.4,1.5-17.9,8.9c-2.2,6.4,0.6,13.3,6.2,16.7C72.7,50.3,71.2,44.7,73,39.4z"/>
				<circle fill="#2F1010" cx="82" cy="45.6" r="9.1"/>
				<path opacity="0.43" d="M79.9,52.1c-4.4-1.5-7-6-6-10.5c-0.2,0.3-0.3,0.7-0.4,1c-1.6,4.8,1,9.9,5.8,11.5c4.8,1.6,9.9-1,11.5-5.8
					c0.1-0.4,0.2-0.7,0.3-1.1C89,51.5,84.3,53.6,79.9,52.1z"/>
				<path opacity="0.5" fill="#FFFFFF" d="M84.1,39.5c4.1,1.4,6.5,5.6,5.7,9.8c0.1-0.3,0.3-0.6,0.4-1c1.5-4.5-0.9-9.3-5.4-10.8
					c-4.5-1.5-9.3,0.9-10.8,5.4c-0.1,0.3-0.2,0.7-0.3,1C75.5,40.1,79.9,38.1,84.1,39.5z"/>
				<circle cx="81.3" cy="47.8" r="6"/>
				<circle opacity="0.58" fill="#FFFFFF" cx="77.2" cy="43.9" r="3.8"/>
				<circle opacity="0.86" fill="#FFFFFF" cx="81" cy="42.4" r="2"/>
				<circle opacity="0.91" fill="#FFFFFF" cx="87.4" cy="50.2" r="1.3"/>
				<circle opacity="0.81" fill="#FFFFFF" cx="88.7" cy="49.2" r="0.9"/>
			</g>
			<g>
				<circle fill="#2B388F" cx="116.6" cy="42.5" r="16.4"/>
				<circle fill="#FAF39A" cx="116.3" cy="42.4" r="14.6"/>
				<path opacity="0.33" fill="#CA992C" d="M130.6,39.4c-0.2,5.4-3.4,10.5-8.6,12.9c-7.4,3.3-16,0-19.3-7.4c-0.4-1-0.7-1.9-1-2.9
					c-0.1,2.2,0.3,4.4,1.3,6.4c3.3,7.4,11.9,10.7,19.3,7.4C128.7,52.9,132,46,130.6,39.4z"/>
				<path opacity="0.45" fill="#FFFFFF" d="M105.7,40.2c2.5-7.4,10.5-11.4,17.9-8.9c1,0.3,1.9,0.7,2.7,1.2c-1.5-1.5-3.3-2.6-5.4-3.3
					c-7.4-2.5-15.4,1.5-17.9,8.9c-2.2,6.4,0.6,13.3,6.2,16.7C105.4,51.1,103.9,45.5,105.7,40.2z"/>
				<circle fill="#2F1010" cx="114.7" cy="46.4" r="9.1"/>
				<path opacity="0.43" d="M112.5,52.9c-4.4-1.5-7-6-6-10.5c-0.2,0.3-0.3,0.7-0.4,1c-1.6,4.8,1,9.9,5.8,11.5
					c4.8,1.6,9.9-1,11.5-5.8c0.1-0.4,0.2-0.7,0.3-1.1C121.7,52.3,117,54.4,112.5,52.9z"/>
				<path opacity="0.5" fill="#FFFFFF" d="M116.8,40.3c4.1,1.4,6.5,5.6,5.7,9.8c0.1-0.3,0.3-0.6,0.4-1c1.5-4.5-0.9-9.3-5.4-10.8
					c-4.5-1.5-9.3,0.9-10.8,5.4c-0.1,0.3-0.2,0.7-0.3,1C108.2,40.9,112.6,38.9,116.8,40.3z"/>
				<circle cx="114" cy="48.6" r="6"/>
				<circle opacity="0.58" fill="#FFFFFF" cx="109.8" cy="44.7" r="3.8"/>
				<circle opacity="0.86" fill="#FFFFFF" cx="113.7" cy="43.2" r="2"/>
				<circle opacity="0.91" fill="#FFFFFF" cx="120.1" cy="51" r="1.3"/>
				<circle opacity="0.81" fill="#FFFFFF" cx="121.4" cy="50" r="0.9"/>
			</g>
		</g>
	</g>
</g>
</svg>
