<?xml version="1.0" encoding="utf-8"?>
<!-- Generator: Adobe Illustrator 17.1.0, SVG Export Plug-In . SVG Version: 6.00 Build 0)  -->
<!DOCTYPE svg PUBLIC "-//W3C//DTD SVG 1.1//EN" "http://www.w3.org/Graphics/SVG/1.1/DTD/svg11.dtd">
<svg version="1.1" xmlns="http://www.w3.org/2000/svg" xmlns:xlink="http://www.w3.org/1999/xlink" x="0px" y="0px" width="171.8px"
	 height="268.3px" viewBox="0 0 171.8 268.3" enable-background="new 0 0 171.8 268.3" xml:space="preserve">
<g id="graphic_bg">
</g>
<g id="area_elements">
</g>
<g id="charachters">
	<g>
		<path fill="#3B3531" d="M80.9,248.7c-0.8,6.2,0.6,5.9,0.6,5.9h30.5c1.9-1,0.4-3.4-5.7-6.6c-6.1-3.2-14.2-3.5-16.5-3.7
			c-2.3-0.3-2.7-0.6-2.6-1.4c0.1-0.8,0.8-7.7,1.7-25.9h-6C82.4,232.4,81.5,243.9,80.9,248.7z"/>
		<path fill="#3B3531" d="M51.7,242.9c0.1,0.9-0.3,1.2-2.6,1.4c-2.3,0.3-10.4,0.6-16.5,3.7c-6.1,3.2-7.6,5.6-5.7,6.6h30.5
			c0,0,1.4,0.3,0.6-5.9c-0.6-4.9-1.5-16.3-2-31.7h-6C50.9,235.2,51.6,242.1,51.7,242.9z"/>
		<path fill="#004F7E" d="M80,152.4c0,1.5-1.2,2.8-2.8,2.8H60.1c-1.5,0-2.8-1.2-2.8-2.8v-0.2H44.5v12.4c0,0-0.1,6.2,5.3,11.1
			c-0.3,7.1-0.7,21.2,0,36.5c0.1,1.7,0.2,3.4,0.2,4.9h6c-0.1-4.2-0.3-8.7-0.4-13.4c-0.2-13.4,0.1-20.6,0.5-24.2
			c3.3,1.2,7.5,2,12.9,2c5.9,0,10.4-1,13.8-2.4c0.3,3.5,0.8,10.7,0.5,24.6c-0.1,4.7-0.2,9.2-0.4,13.4h6c0.1-1.6,0.2-3.2,0.2-4.9
			c0.7-16.1,0.3-30.9-0.1-37.5c4.2-4.7,4-10,4-10v-12.4H80V152.4z"/>
		<rect x="44.5" y="142.6" fill="#804400" width="12.8" height="9.6"/>
		<rect x="80" y="142.6" fill="#804400" width="13.2" height="9.6"/>
		<path fill="#A4976D" d="M26.8,112.6l5.4,6.9c1.5-1.7,3.2-3.1,4.8-4.3c2.4-1.7,5-2.9,7.4-3.7v31.2h6.4V93.9
			C45,96.7,34.6,102.7,26.8,112.6z"/>
		<path fill="#A4976D" d="M81.9,91.9H55.5c0,0-0.1,0-0.2,0.1v50.6h2c0-1.5,1.2-2.8,2.8-2.8h17.2c1.5,0,2.8,1.2,2.8,2.8h2.2V92
			C82,92,81.9,91.9,81.9,91.9z"/>
		<path fill="#004F7E" d="M50.9,93.9v48.7h4.4V92C54.8,92.2,53.2,92.8,50.9,93.9z"/>
		<path fill="#A4976D" d="M86.6,94v48.7h6.6v-31c2.3,0.8,4.7,2,7.1,3.6c1.8,1.3,3.6,2.9,5.2,4.7l5.4-6.8
			C103.1,103,92.6,96.8,86.6,94z"/>
		<path fill="#004F7E" d="M82.2,92v50.6h4.4V94C84.4,92.9,82.8,92.3,82.2,92z"/>
		<path fill="#90ABAD" d="M57.3,152.2v0.2c0,1.5,1.2,2.8,2.8,2.8h17.2c1.5,0,2.8-1.2,2.8-2.8v-0.2l0,0v-9.6l0,0
			c0-1.5-1.2-2.8-2.8-2.8H60.1c-1.5,0-2.8,1.2-2.8,2.8l0,0V152.2L57.3,152.2z M61.1,144.3c0-1,0.8-1.8,1.8-1.8h11.4
			c1,0,1.8,0.8,1.8,1.8v6.5c0,1-0.8,1.8-1.8,1.8H63c-1,0-1.8-0.8-1.8-1.8V144.3z"/>
		<path fill="#804400" d="M63,152.6h11.4c1,0,1.8-0.8,1.8-1.8v-6.5c0-1-0.8-1.8-1.8-1.8H63c-1,0-1.8,0.8-1.8,1.8v6.5
			C61.1,151.8,61.9,152.6,63,152.6z"/>
		<path fill="#EAD8CA" d="M24.6,115.8C13.3,132.5,13,155,13,155s-4.7,0.7-9,4.9c-4.3,4.2-4.9,8.4-2.8,9.1c2.1,0.7,3.1-2.4,3.8-4.3
			c0.7-1.9,2.6-3.6,2.6-0.8c0,2.8-0.2,6.5,0.6,14.6c0.8,8.2,2.3,9.3,4.4,9.3c2.1-0.1,1.2-4.4,0.6-6.6c-0.6-2.2-0.8-11-0.8-11
			s0.3,6.1,2.5,11.4c2.3,5.3,4.2,7.1,6.1,6.3c1.9-0.8-0.1-4.9-2.3-8.7c-2.2-3.8-3.2-9.1-3.2-9.1s4.8,12,7.2,10.8
			c2.4-1.2,0.8-3.2-1.1-6.3c-1.9-3.1-3.3-8.1-3.3-8.1s3.8,8.6,5.7,7c1.9-1.6-0.2-3.3-2.5-7.8s-1.9-4.7-2.1-6.6
			c-0.3-1.9-0.3-2.3-1-2.9c-0.7-0.6-1.2-0.8-1.2-0.8s0.6-5.9,3.3-15c2.1-7.1,6.4-15.2,11.8-21l-5.4-6.9
			C26,113.6,25.3,114.7,24.6,115.8z"/>
		<path fill="#EAD8CA" d="M114.3,129.3c0.3,0,0.7,0,1-0.1c5.1-0.8,1.8-6.9,0.1-9.1c-1.6-2.3-2.9-4.8-4.6-7c0,0-5.4,6.8-5.4,6.8
			c0,0,3.1,4.3,3.3,4.6C110.3,126.6,111.6,129.2,114.3,129.3z"/>
		<path fill="#EAD8CA" d="M132.9,115.9c-3.9-0.9-25.5,7.9-21.8,12.7C115.4,134.2,136.7,116.8,132.9,115.9z"/>
		<path fill="#EAD8CA" d="M145.3,119.3c-2-1.9-4.1-3.4-6.8-3.8c-2.6-0.4-6.1-1-8.2,1.1c-1.4,1.4,0,3.8,1,5.2
			c1.1,1.5,1.6,1.3,3.1,6.2c1.5,4.9,1.2,7.6,3.7,7.4c2.5-0.2-0.8-9-0.8-9s2.5,4.5,3.3,8.1c0.8,3.6,1.1,6.1,3.6,5.3
			c2.6-0.9-2.4-12.8-2.4-12.8s3,4.5,4.1,8.7c1.1,4.2,2.6,8.5,4.4,7.8c1.9-0.7,2-3.4-0.1-8.7c-2.1-5.4-6.1-9.9-6.1-9.9s6,6.5,7.1,8.5
			c1.1,2,3.4,5.7,5,4.3c1.6-1.4,1.8-3.3-3.3-9.7C150.4,124.9,148,121.9,145.3,119.3z"/>
		<g>
			<g>
				<path fill="#DB9C94" d="M41.1,54.9c0,0-1.8-0.8-3-0.3c-1.2,0.5-1.5,3.2-0.8,5c0.7,1.8,1.1,2.4,2.2,2.6c1.1,0.2,2.5-0.2,2.5-0.2
					L41.1,54.9z"/>
				<path fill="#DB9C94" d="M92.7,62c0,0,1.4,0.4,2.5,0.2c1.1-0.2,1.5-0.8,2.2-2.6c0.7-1.8,0.4-4.5-0.8-5c-1.2-0.5-3,0.3-3,0.3
					L92.7,62z"/>
				<path fill="#EAD8CA" d="M94.6,53.4c0,1.3-0.1,2.7-0.2,4v0c-0.3,4.3-0.9,8.3-2,11.8c-1.4,4.6-2.8,8.2-6.6,12.2
					c-3.7,4-9,7.4-12.2,8.7c-3.2,1.3-8.5,1.3-13.3-0.9c-4.8-2.1-8.5-5.1-12.1-11.2c-3.6-6.2-5.6-10.8-6.8-17.5
					c-0.2-1.2-0.4-2.3-0.5-3.4c-0.6-5.4-0.2-10.2,0.7-12.8c1-3.1,3.5-8.6,8.3-11.8c4.8-3.2,11.9-5.7,17.1-5.9
					c5.2-0.2,12.6,1.5,16.2,3.8c3.6,2.3,7.8,6.3,9.1,9.7C93.7,43.4,94.7,47.6,94.6,53.4z"/>
				<path fill="#59423B" d="M72.5,68.9c1.8,0,3.4,1.1,4.3,2c0.9,0.9,1.9,2.4,4.1,2.3c2.2-0.1,4.4-2.3,4.4-2.3s-0.1,3-2.1,5.1
					c-1.5,1.5-4.4,2.4-7,2c-2.8-0.4-7.1-1.8-7.5-5.2c-0.1-0.6,0-1.5,0.3-2.1C69.6,69.4,71,68.9,72.5,68.9z"/>
				<path fill="#59423B" d="M68.5,70.7c0.3,0.6,0.3,1.5,0.3,2.1c-0.4,3.4-4.7,4.8-7.5,5.2c-2.6,0.4-5.5-0.5-7-2
					c-2.1-2.1-2.1-5.1-2.1-5.1s2.2,2.1,4.4,2.3c2.2,0.1,3.2-1.4,4.1-2.3c0.9-0.9,2.5-2,4.3-2C66.4,68.9,67.8,69.4,68.5,70.7z"/>
				<polygon fill="#DB9C94" points="66.3,58.2 70.2,58.3 71.9,71.6 65,71.7 				"/>
				<path fill="#59423B" d="M70,21c6.1,0.6,14.5,4.3,18,8.2c3.5,3.9,5,6.6,6,10c1,3.4,1.9,10.9,3,13.5c1.1,2.6,2.9,5.1,4.3,5.7
					c1.4,0.6,4.4,0.4,4.4,0.4s-0.5,2.2-1.8,3.1c-1.3,0.9-1.9,1.2-2.9,1.2c-1,0-1.6,0-1.6,0s0.7,1.9,4.2,1.8c3.4-0.1,4.8-0.7,4.8-0.7
					s-1.4,6.1-6.3,6.7c-7.4,0.8-9.6-2.7-9.6-2.7s0.4-0.2,1.3-5.5c0.9-5.3-0.1-9.5-1.2-12.7c-1.1-3.2-2.1-5.5-4.5-7.5
					c-2.4-2-4.7-3.4-8.2-1.6c-3.5,1.8-3.1,2.2-5.5,3.5c-2.4,1.3-6,1.6-8.3,1.2c-2.2-0.4-3.5-1.3-4.7-2.3c-1.2-0.9-2.2-2.9-2.2-2.9
					s3.6,0.7,6.8-1.2c3.2-1.9,4.1-5.1,4.1-5.1s-2.1-0.8-5.6-0.9c-3.5,0-9.7,1.9-12,3.4c-2.3,1.4-5.8,5-7.2,7.8
					c-1.4,2.8-3.8,8.5-3.8,12.9c-0.1,4.4,2.3,10.7,2.3,10.7s-0.6,1.8-4,3c-3.4,1.2-6,0.4-7.9-0.4c-1.9-0.8-3.3-3-4-4
					c-0.8-1-0.9-2.4-0.9-2.4s2.3,0.8,4.4,0.5c3.1-0.4,4.1-1.3,4.1-1.3s-3.3-0.5-4.8-1.7c-1.4-1.2-1.8-2.7-1.8-2.7s2.9,0.7,4.8-0.3
					c1.8-1,3.2-2.6,3.7-4.2c0.4-1.6,0.7-7.1,2.3-12.9c1.7-5.8,5.9-12.2,9.9-15.1C53.5,23.9,62.8,20.2,70,21z"/>
				<g>
					<path fill="#293D60" d="M94.9,53.6c0,0,2.9-0.2,3.2,0.1c0.3,0.3,0.3,2.8,0.1,3c-0.2,0.2-2.1,0-2.1,0L94.9,53.6z"/>
					<path fill="#F23B54" d="M79.3,49.8c2-0.4,7.2-1.1,9.7-0.4c2.4,0.7,3.6,1.6,4.9,2.7c1.3,1.1,2.5,3.4,2.6,5.5
						c0.1,5.7-4.6,13.2-11,13.1c-3.6-0.1-6.9-2.6-9.1-5.3c-1.1-1.3-2.4-3-3.1-4.6c-0.7-1.7-1-4-0.5-5.8
						C73.6,52.4,76.1,50.5,79.3,49.8z"/>
					<path fill="#EDD380" d="M84.4,50.6c2.5,0,6.3,1,7.9,2.5c1.6,1.5,2.1,3,2.1,5.1c0.1,2.1-0.6,4.2-1.8,6c-1.2,1.8-3,3-4.9,3.8
						c-4.8,2.1-10.6-2.5-12.2-7c-0.7-2-0.8-5.2,0.5-7C77.2,52.6,79.9,50.7,84.4,50.6z"/>
					<path fill="#293D60" d="M41.2,56.8c0,0-1.9,0.2-2.1,0c-0.3-0.2-0.2-2.7,0.1-3c0.3-0.3,3.2-0.1,3.2-0.1L41.2,56.8z"/>
					<path fill="#F23B54" d="M64.3,55c0.5,1.8,0.2,4.1-0.5,5.8c-0.6,1.6-2,3.3-3.1,4.6c-2.2,2.7-5.5,5.2-9.1,5.3
						c-6.3,0.1-11-7.4-11-13.1c0-2.2,1.3-4.5,2.6-5.5c1.3-1.1,2.5-1.9,4.9-2.7c2.4-0.7,7.6,0,9.7,0.4C61.1,50.5,63.6,52.4,64.3,55z"
						/>
					<path fill="#EDD380" d="M61.1,54c1.4,1.8,1.3,5,0.5,7c-1.7,4.5-7.4,9-12.2,7c-1.9-0.8-3.7-2-4.9-3.8c-1.2-1.8-1.8-3.9-1.8-6
						c0.1-2.1,0.5-3.6,2.1-5.1c1.6-1.5,5.4-2.5,7.9-2.5C57.3,50.7,60,52.6,61.1,54z"/>
					<path fill="#293D60" d="M72.7,56.9c-0.2-0.6-1.2-1.4-2-1.5c-0.5-0.1-0.6-0.1-1-0.1c-0.4,0-1.8,0-2.2,0c-0.3,0-0.5,0-1,0.1
						c-0.8,0.1-1.8,0.9-2,1.5c-0.2,0.6,0.4,1,1.1,0.8c0.7-0.3,0.8-0.7,1.8-0.7c0.5,0,1.9,0,2.5,0c1,0,1,0.5,1.8,0.7
						C72.3,57.9,72.9,57.5,72.7,56.9z"/>
					<path fill="#293D60" d="M83.3,48.3c-0.7-0.3-3.3,0.4-4.6,0.6c-1.3,0.2-5.6,0.5-6.3,0.6c-1.2,0.1-5.5,0.1-7.4,0
						c-0.7,0-5-0.4-6.3-0.6c-1.3-0.2-3.9-0.9-4.6-0.6c-0.7,0.3-0.6,0.9-0.6,0.9s1.3,0.5,2.5,0.7c1.2,0.3,3,0.6,3.9,0.7
						c0.8,0.1,2.4,0.4,3.3,0.4c0.9,0,2.9,0.2,3.8,0.2c0.6,0,3,0,3.6,0c0.8-0.1,2.8-0.2,3.8-0.2c0.9,0,2.5-0.3,3.3-0.4
						c0.8-0.1,2.7-0.5,3.9-0.7c1.2-0.3,2.5-0.7,2.5-0.7S84,48.6,83.3,48.3z"/>
				</g>
				<path fill="none" stroke="#F23B54" stroke-width="3" stroke-linecap="round" stroke-miterlimit="10" d="M64.4,80.9
					c1.9-1.1,4.2-1.6,6.4-1.4"/>
			</g>
			<g>
				<path fill="#14BCC9" d="M98.7,37.8c-0.9,3.4-4.1,6.5-8.3,8.5c-4.1,2-11.5,2.6-16.8,1.8c-5.4-0.8-11.3-2.9-14.6-4.2
					c-3.3-1.4-9-3.4-12-3.7c-3-0.3-7.8-0.1-9.7-2.6c-0.3-0.4-0.6-0.9-0.8-1.4c-0.8-2.4,0.2-5.3,2.4-6.9c2.7-2,5.8-3,5.8-3
					s0.1-0.6,0.4-1.6c0.7-2.4,2.3-7.3,5.9-10.8c4.9-5,13.3-7.4,18.9-6.6c6.1,0.8,11.7,4.8,14,8c2.3,3.3,4.4,9.2,4.4,9.2
					s0.1,0,0.2,0.1c1,0.3,5.4,1.6,8,4.5c0.2,0.3,0.5,0.5,0.7,0.8C99.4,32.7,99.5,34.7,98.7,37.8z"/>
				<path fill="#14BCC9" d="M90.7,41.5c0,0-9.5,2.5-9.8,2.7c-0.3,0.2-19.3-3.9-19.3-3.9l-16.8-4.8c0,0-0.2-2.7-0.2-5.2
					c0-0.1,0-0.2,0-0.3c0-2.3,0.2-3.7,0.5-5.4c0.7-2.4,2.3-7.3,5.9-10.8c4.9-5,13.3-7.4,18.9-6.6c6.1,0.8,11.7,4.8,14,8
					c2.3,3.3,4.4,9.2,4.4,9.2s0.1,0,0.2,0.1c0.4,1.6,0.8,3.4,1.1,4.6c0.2,1.1,0.4,3.3,0.6,5.5C90.5,38,90.7,41.5,90.7,41.5z"/>
				<path fill="#FFFFFF" d="M90.7,41.5c0,0-9.5,2.5-9.8,2.7c-0.3,0.2-19.3-3.9-19.3-3.9l-16.8-4.8c0,0-0.2-2.7-0.2-5.2
					c2.2-0.3,6.2-0.7,11.1,0c7.4,1,13.4,2.2,17.4,3.2c4,1,7.4,1.9,10.7,1.9c1.8,0,4.4-0.4,6.3-0.7C90.5,38,90.7,41.5,90.7,41.5z"/>
				<path fill="#14BCC9" d="M98.7,37.8c-0.9,3.4-4.1,6.5-8.3,8.5c-4.1,2-11.5,2.6-16.8,1.8c-5.4-0.8-11.3-2.9-14.6-4.2
					c-3.3-1.4-9-3.4-12-3.7c-3-0.3-7.8-0.1-9.7-2.6c-0.3-0.4-0.6-0.9-0.8-1.4c2.1-1.1,6-2.7,9.5-2.8c5.2-0.1,10.5,1.2,15,2.9
					c4.5,1.7,7.6,3.6,11.7,5c4.1,1.3,9.9,1.9,14.7-0.5c4.8-2.4,7.8-5.3,8.8-7.9c0.5-1.1,0.8-2.1,1-3C99.4,32.7,99.5,34.7,98.7,37.8z
					"/>
			</g>
			<path fill="#F23B54" d="M87.1,96c-1.1-1.3-11.1,2.4-14.4,3.7c-0.9-0.9-2.4-1.5-4.4-1.5c-1.5,0.2-2.5,0.6-3,1.4
				C62,98.5,52,94.7,50.9,96c-1.3,1.6-1.3,4.4-1.3,7.2c0,2.7,0.5,8.2,2.1,8.6c1.7,0.4,6.5-2.3,9-3.4c1.4-0.6,3.5-1.9,5.1-3
				c0.7,0.6,1.8,1,3.3,1.1c1.4,0,2.5-0.4,3.2-1c1.6,1,3.6,2.3,5,2.9c2.4,1.1,7.3,3.8,9,3.4c1.7-0.4,2.2-5.8,2.1-8.6
				C88.4,100.4,88.4,97.7,87.1,96z"/>
		</g>
		<path fill="#EAD8CA" d="M135.9,126.1c0.3-2.2-0.7-4.6-2.4-6c-0.2-0.2-0.4-0.3-0.6-0.3c-0.5,0-0.8,0.5-1.2,0.6c0.3,3,0.2,6-0.3,8.9
			c0.9,0.7,2.3,0.5,3.1-0.2C135.3,128.3,135.7,127.2,135.9,126.1z"/>
	</g>
</g>
<g id="text">
</g>
</svg>
