<?xml version="1.0" encoding="utf-8"?>
<!-- Generator: Adobe Illustrator 17.1.0, SVG Export Plug-In . SVG Version: 6.00 Build 0)  -->
<!DOCTYPE svg PUBLIC "-//W3C//DTD SVG 1.1//EN" "http://www.w3.org/Graphics/SVG/1.1/DTD/svg11.dtd">
<svg version="1.1" xmlns="http://www.w3.org/2000/svg" xmlns:xlink="http://www.w3.org/1999/xlink" viewBox="0 0 389.9 265.1" enable-background="new 0 0 389.9 265.1" xml:space="preserve">
<g id="graphic_bg">
</g>
<g id="area_elements">
</g>
<g id="charachters">
</g>
<g id="text">
	<g>
		<path d="M51.3,83.8c-1.3,16.5,5.8,34.6,35.2,36.9c10.7,0.8,15.5-0.6,25.3-4.5c0.5,0.8,0.9,1.5,0.8,2.4c-0.5,6.2-17,13.9-34.6,12.5
			c-12.9-1-25.2-11.7-29.4-25.2c-6.8,4.9-15.4,6.2-22.3,5.7c-12.3-1-23.4-10.9-22.2-26.7c1.5-19.8,17.4-30.2,30.7-29.2
			c4.7,0.4,9.7,3.1,14.1,6.6c3.3-3,7.7-4.9,13.5-5.3C57.2,64,52.1,73.4,51.3,83.8z M23,97.3c17.1,1.3,20.6-3.9,20.8-6.2l0.6-7.2
			c0.7-9.1-1.7-13.1-8.7-13.7C31.2,69.9,13,68.4,12,81.4C11.1,93.4,18,96.9,23,97.3z"/>
		<path d="M100.3,28.7c-1.8-0.3-4.4-1.7-5.6-1.7c-0.2,0-0.3,0-0.5,0.1c-13.2,8.1-20.6,22.7-20.9,35c6.2-7.2,12-9.5,18.3-9.5
			c14.9,0,27.7,16,27.7,32.4c0,14.5-9.8,24.7-24.2,24.7c-18.6,0-27.6-20.7-27.6-43.3c0-20.3,6.1-31.8,21.2-55.6
			C90.7,15.5,95.7,23.2,100.3,28.7z M94.1,94.8c11,0,20-6.5,20-14.7c0-12.3-9-14.8-20-14.8c-15.6,0-20.3,6.5-20.3,11.2
			C73.8,88.2,80.8,94.8,94.1,94.8z"/>
		<path d="M133.7,46c5.1,0,6.5,5.8,6.5,12.8c0,8.6-2,19-2,22.6c0,1.9,1.2,2.8,3.1,2.8c7.7,0,23.2-11.5,25.2-33.6
			c0.1-1.2,1.5-4.5,2.7-4.5c1.5,0,2.6,1.9,2.6,2.8c0,1.8-0.1,3.9-0.1,6.2c0,19.8,1.7,55.8,22.5,55.8c1.6,0,3.3-0.2,5.1-0.7
			c-1.6,7.5-7.4,11.2-13.4,11.2c-14.4,0-21.1-16.5-21.1-35.9c0-5.6,0.6-11.5,1.7-17.3c-3.6,6.7-16.4,33.2-24.5,33.2
			c-15.6,0-3.5-44.2-17.2-44.2c-1.9,0-4.3,1.1-7.4,3.6C122.8,50.9,130.1,46,133.7,46z"/>
		<path d="M199.1,12.3c-5.8,19-12.2,33.2-12.2,49.3c0,9.9,1.4,25,6.1,37.9c0.7,1.7,0.9,2.7,0.9,3.4c0,0.5-0.1,0.7-0.3,0.7
			c-0.5,0-1.5-1-2.4-2.6c-6.9-11.5-11.7-27.9-11.7-46.5c0-7.5,1.6-20.9,3.3-28.3c0-0.5-0.1-0.6-0.3-0.6c-0.8,0-2.6,1-3.9,1
			c-0.5,0-0.7-0.1-0.9-0.5C183.6,19.9,191.7,15.2,199.1,12.3z"/>
		<path d="M242.4,66.5c0,10.9,3.3,24.3,8.1,32.4c-0.6,0.1-1.1,0.1-1.6,0.1c-6,0-9-4-12.3-8.3c-4.3,6.1-9.7,9.1-17.3,9.1
			c-16.1,0-21.5-11.7-21.5-24c0-13.7,12.8-27.7,24.4-27.7c5.7,0,8,1,11.9,3c2.6-3.3,6.6-5.6,11.6-5.6c1.2,0,2.5,0.3,3.9,0.6
			C245.2,49.8,242.4,57.3,242.4,66.5z M218.4,87.8c5.8,0,18.7-1.7,18.7-13.1c0-9.1-2.7-14.9-16.5-14.9c-9.2,0-16.5,5.8-16.5,13.7
			C204.2,81.6,209.2,87.8,218.4,87.8z"/>
		<path d="M283.9,58.2c-0.5,7.6-5.5,11.4-11.1,11.9c7,15.1,16.6,32.7,16.6,45.6c0,12.6-9.8,20.9-18.5,20.9
			c-8.3,0-13.5-6.4-13.5-12.3c0-2.5,2-9.8,6.7-9.8c0.3,0,0.8,0.3,0.8,0.5c-0.2,0.8-0.3,2.4-0.3,3.1c0,3.5,2.6,6,8.4,6
			c4.2,0,9.3-3.4,9.3-10.8c0-8.9-9.8-26.7-16.7-44c-5.3-1.8-9.9-6.4-10.5-12.8c2.3,1.1,4.5,2.4,7,3.5c-2-6.2-3.4-12.3-3.4-17.4
			c0-39.6,42.7-24.2,52.6-40c-2.6,29.4-45.8,16.6-45.8,45.1c0,4,1.5,8.9,3.9,14.5c0.8,0.1,1.7,0.2,2.5,0.2c4.4,0,8.4-2,11.5-8.2
			c0.3,1.1,0.6,2.2,0.6,3.2V58.2z"/>
		<path d="M300,58.6c5.2,0,15.1,4.1,18.6,8.5c-1.1-0.1-3.2-0.7-4.9-0.7c-1.5,0-2.7,0.3-3.2,1.8c-2,6-2.5,18.4-2.5,25.8
			c0,15.8-1.6,23.6-7.6,28.9c-0.7,0.6-1.9,1.5-2,1.4c0-0.3,0.8-1.4,1-2c1.8-2.5,3.1-9.5,3.1-13.9c0-13.2-5.9-18.5-5.9-41.8
			C296.6,59.7,298.1,58.6,300,58.6z M306,43.4c2.7,0,5.5-1.6,7.4-4.4v1.3c0,7.6-3.8,10.6-7.7,10.6c-4.2,0-8.5-3.4-8.5-8.4
			c0-1.4,0.3-2.8,1-4.3C300.3,41.8,303.3,43.4,306,43.4z"/>
		<path d="M365.1,79.1c0,10.9,3.3,24.3,8.1,32.4c-0.6,0.1-1.1,0.1-1.6,0.1c-6,0-9-4-12.3-8.3c-4.3,6.1-9.7,9.1-17.3,9.1
			c-16.1,0-21.5-11.7-21.5-24c0-13.7,12.8-27.7,24.4-27.7c5.7,0,8,1,11.9,3c2.6-3.3,6.6-5.6,11.6-5.6c1.2,0,2.5,0.3,3.9,0.6
			C367.9,62.4,365.1,69.9,365.1,79.1z M341.1,100.5c5.8,0,18.7-1.7,18.7-13.1c0-9.1-2.7-14.9-16.5-14.9c-9.2,0-16.5,5.8-16.5,13.7
			C326.9,94.2,331.9,100.5,341.1,100.5z"/>
		<path d="M61.2,184.2c9.4-25.1,25.2-38,37.3-38c9.7,0,24.4,6.9,24.4,36.8c0,22.1-6.4,34.5-15.3,52c-0.3,0.8-0.7,1.6-1.2,2.5
			c-0.2,0.2-1.2,1-1.7,1c-0.2,0-0.3,0-0.3-0.3c0-0.5,0.5-1.2,0.5-1.3c4.5-13,7.8-29.2,7.8-38.1c0-17.8-7.8-26.9-18.2-26.9
			C79.3,171.9,66,190.2,64,223c0,0.5-0.3,0.8-0.8,0.8c-0.7,0-1.5-0.7-1.5-1c0-32-13.4-48.4-24.8-48.4c-8.6,0-18.5,5.8-18.5,17.7
			c0,8.1,2.5,20.8,11.4,32.3c0.2,0.2,0.3,0.3,0.3,0.5c0,0.5-0.7,0.7-0.8,0.7c-0.8,0-23.9-15.7-23.9-16.3c0-1.3,0.7-1.8,1.8-1.8
			c2.1,0,5.9,1.8,8.9,2.3c-5.1-8.1-5.9-24.1-5.9-27.2c0-16.7,11.4-29.4,23.1-29.4C42.2,153.2,52.6,163.4,61.2,184.2z"/>
		<path d="M180.8,190.3c0,12.9,3.9,28.7,9.5,38.3c-0.7,0.1-1.3,0.1-1.9,0.1c-7.1,0-10.6-4.7-14.5-9.8c-5.1,7.3-11.4,10.7-20.4,10.7
			c-19.1,0-25.4-13.8-25.4-28.3c0-16.2,15.2-32.8,28.9-32.8c6.7,0,9.4,1.2,14.1,3.5c3.1-3.9,7.8-6.6,13.7-6.6c1.5,0,3,0.4,4.6,0.7
			C184.1,170.6,180.8,179.4,180.8,190.3z M152.4,215.6c6.8,0,22.2-2,22.2-15.4c0-10.7-3.2-17.6-19.5-17.6
			c-10.9,0-19.5,6.8-19.5,16.2C135.6,208.2,141.6,215.6,152.4,215.6z"/>
		<path d="M194.9,170c1.7,0,3.5-0.1,5.2-0.4c-2.6-9.4-4.2-18.5-4.2-26.5c0-23.1,26.7-13.2,38-35.9c0.1,1.7,0.1,3.5,0.1,5.1
			c0,38.9-28.7,18.3-28.7,38.1c0,5.5,0.9,11,2.3,16.7c4.2-1.9,7.2-4.4,9.5-8.3c1.3,1.7,1.9,3.8,1.9,5.9c0,5.1-3.5,10.5-8.3,12.9
			c5.6,18.3,12.5,40.1,12.5,56.4c0,15.7-5.6,28.3-12.8,28.3c-8.3,0-11.5-16.7-11.5-22.7c1.9,0.7,3.8,3.1,6.7,3.1
			c5.9,0,9.3-5.6,9.3-12.1c0-6.8-7.5-31.7-12.2-52.4c-3.6-0.8-8.2-3.6-11.5-8.7C192,169.8,193.9,170,194.9,170z"/>
		<path d="M238.8,166.2c6.2,0,17.9,4.8,22,10.1c-1.3-0.1-3.8-0.8-5.8-0.8c-1.7,0-3.2,0.4-3.8,2.1c-2.4,7.1-3,21.8-3,30.5
			c0,18.7-1.9,27.9-9,34.1c-0.8,0.7-2.3,1.7-2.4,1.6c0-0.4,0.9-1.6,1.2-2.4c2.1-3,3.6-11.3,3.6-16.4c0-15.6-7-21.9-7-49.4
			C234.7,167.4,236.6,166.2,238.8,166.2z M245.9,148.2c3.2,0,6.4-1.9,8.7-5.2v1.5c0,9-4.4,12.5-9.1,12.5c-5,0-10.1-4-10.1-9.9
			c0-1.6,0.4-3.4,1.2-5.1C239.2,146.3,242.7,148.2,245.9,148.2z"/>
		<path d="M314.3,189.9c1.1,18.2,11.5,36.8,43.8,34.9c11.8-0.7,16.8-3,26.8-8.6c0.7,0.8,1.2,1.5,1.2,2.5
			c0.4,6.8-16.4,17.6-35.8,18.8c-14.2,0.8-29.2-9-35.7-23.1c-6.7,6.4-15.9,9.1-23.4,9.5c-13.5,0.8-27.1-8.4-28.2-25.8
			c-1.3-21.8,14.4-35.5,29.1-36.4c5.2-0.3,11,1.9,16.3,5c3.1-3.8,7.6-6.4,13.9-7.7C317.8,167.4,313.6,178.5,314.3,189.9z
			 M285.5,208.8c18.9-1.1,21.8-7.3,21.7-9.8l-0.5-8c-0.6-10-3.8-14-11.5-13.6c-4.9,0.3-25,1.5-24.1,15.7
			C271.9,206.4,280,209.1,285.5,208.8z"/>
	</g>
</g>
</svg>
