<?xml version="1.0" encoding="utf-8"?>
<!-- Generator: Adobe Illustrator 17.1.0, SVG Export Plug-In . SVG Version: 6.00 Build 0)  -->
<!DOCTYPE svg PUBLIC "-//W3C//DTD SVG 1.1//EN" "http://www.w3.org/Graphics/SVG/1.1/DTD/svg11.dtd">
<svg version="1.1" xmlns="http://www.w3.org/2000/svg" xmlns:xlink="http://www.w3.org/1999/xlink" x="0px" y="0px" width="129px"
	 height="98.3px" viewBox="0 0 129 98.3" enable-background="new 0 0 129 98.3" xml:space="preserve">
<g id="graphic_bg">
</g>
<g id="area_elements">
</g>
<g id="charachters">
</g>
<g id="text">
	<g>
		<path fill="#FFFFFF" d="M126.4,32.8c1.5-22.6-45.2-18.1-57.5-16.1c8.6-36.2-34.9-2.2-44-2.6c-35-1.5-28.6,77.1-8.8,77.1
			c19.6,0,11.4-25.8,23.8-25.8c8.3,0,29.4-1,36.8,0.4c-0.5,18.5,18.9,27.8,34.2,22C132.9,79.5,130.2,51,126.4,32.8
			C126.5,32.3,128.6,43.1,126.4,32.8z M21.9,16C22,16,22.5,16,21.9,16C21.9,16,22,16,21.9,16z M51.2,66.9
			C44.9,63.7,53.2,67.9,51.2,66.9C50.6,66.6,51.2,66.9,51.2,66.9z M55.5,67.8C55,67.8,56.1,67.8,55.5,67.8
			C55.5,67.8,55.6,67.8,55.5,67.8z M57.3,1C57.4,1,60.2,0.7,57.3,1C57.7,0.9,57.7,0.9,57.3,1z M85.8,17.6
			C86,17.6,86.8,17.6,85.8,17.6C85.9,17.6,85.9,17.6,85.8,17.6z M101.3,87.6C97.4,87.6,102.4,87.6,101.3,87.6
			C100.9,87.6,101.3,87.6,101.3,87.6z M123.4,26.4C123.4,26.4,123.4,26.4,123.4,26.4C123.4,26.4,123.4,26.4,123.4,26.4z M122.9,26.4
			C122.9,26.4,122.9,26.4,122.9,26.4C122.9,26.4,122.9,26.4,122.9,26.4z M122.9,26.4C123,26.9,123.3,28.2,122.9,26.4
			C122.9,26.4,123,26.7,122.9,26.4z M123,26.9c0,0.1,0.1,0.2,0.1,0.3C123.1,27.1,123,27,123,26.9z M123.6,29.1
			C124.4,32.3,124.8,33.9,123.6,29.1C123.6,29.3,123.5,28.7,123.6,29.1z M124.4,32.5C124.4,32.5,124.4,32.5,124.4,32.5
			C124.4,32.5,124.4,32.5,124.4,32.5C124.4,32.5,124.4,32.5,124.4,32.5z"/>
		<g>
			<path d="M17.4,27.1c0.5,0,1,0.5,1.4,1.1c1.3,1.9,2.2,3.8,2.9,5.7c1.6-4,4.3-6.2,10.4-6.2c9.3,0,12.6,1.5,12.6,12.8
				c0,9-3.2,14.7-10.4,14.7c-4,0-7.2-2.3-10.4-6.3v0.8c0,10.1-2.5,21.4-6.6,28.3c-0.5,0.8-1,1.1-1.2,1.1c-0.2,0-0.3-0.2-0.3-0.5
				c0-0.2,0.1-0.4,0.1-0.7c1.8-5.3,3.4-9.9,3.4-17.1c0-9.7-1-20.2-5.2-26.4c-0.7-1-1.5-1.2-2.5-1.2c-0.7,0-1.1,0-2.1,0.1
				C11,31.9,15.8,27.1,17.4,27.1z M41.7,39.1c0-4.1-5-5.5-11.1-5.5c-4.4,0-6.8,0.8-8.1,3.1c0.9,3.4,1.3,6.9,1.3,10.8
				c1.3,0.6,3.2,1,6.2,1C36.3,48.5,41.7,44.9,41.7,39.1z"/>
			<path d="M58.7,9.8c-3.1,10-6.4,17.5-6.4,26c0,5.2,0.7,13.2,3.2,20c0.4,0.9,0.5,1.4,0.5,1.8c0,0.2-0.1,0.4-0.2,0.4
				c-0.2,0-0.8-0.5-1.3-1.4c-3.7-6.1-6.2-14.7-6.2-24.5c0-4,0.8-11,1.7-14.9c0-0.2-0.1-0.3-0.2-0.3c-0.4,0-1.4,0.5-2,0.5
				c-0.2,0-0.4-0.1-0.5-0.2C50.6,13.8,54.8,11.4,58.7,9.8z"/>
			<path d="M81.5,38.4c0,5.7,1.7,12.8,4.3,17.1c-0.3,0.1-0.6,0.1-0.8,0.1c-3.2,0-4.7-2.1-6.5-4.4c-2.3,3.2-5.1,4.8-9.1,4.8
				c-8.5,0-11.3-6.2-11.3-12.6c0-7.2,6.8-14.6,12.9-14.6c3,0,4.2,0.5,6.3,1.6c1.4-1.7,3.5-2.9,6.1-2.9c0.7,0,1.3,0.2,2,0.3
				C83,29.6,81.5,33.5,81.5,38.4z M68.9,49.7c3.1,0,9.9-0.9,9.9-6.9c0-4.8-1.4-7.8-8.7-7.8c-4.9,0-8.7,3.1-8.7,7.2
				S64,49.7,68.9,49.7z"/>
			<path d="M94.7,28.1c0.2-0.1,0.5-0.2,0.7-0.2c0.9,0,1.1,1.9,1.1,3.8c0,2.7-0.9,5.6-0.9,8.3c0,5.6,0.9,8,6,8c8.1,0,9-4.8,10.7-19
				c0.1-0.5,0.2-0.6,0.4-0.6c0.2,0,0.5,0.3,0.5,0.5c2.9,11.6,3.6,20.2,3.6,27.3c0,14-5.7,21.5-15.8,21.5c-9.1,0-12.2-6-12.2-11.3
				c0-1.9,0.4-3.6,1-5c0.1-0.3,0.3-0.4,0.5-0.4c0.3,0,0.6,0.2,0.7,0.6c1.2,3.8,4.6,5.9,8.3,5.9c11.7,0,14.6-4.6,14.6-14.9
				c0-3.5-0.4-7.7-0.8-12.5c0-0.4-0.3-0.5-0.5-0.5c-0.3,0-0.5,0.2-0.6,0.5c-1,10.3-2.4,15.3-11.3,15.3c-4.4,0-7.1-1.4-7.3-10.6
				c-0.1-6.8-0.4-11.4-4.7-11.4c-0.5,0-1.1,0.1-1.7,0.3C91.9,29.7,93.5,28.8,94.7,28.1z"/>
		</g>
	</g>
</g>
</svg>
