<?xml version="1.0" encoding="utf-8"?>
<!-- Generator: Adobe Illustrator 17.1.0, SVG Export Plug-In . SVG Version: 6.00 Build 0)  -->
<!DOCTYPE svg PUBLIC "-//W3C//DTD SVG 1.1//EN" "http://www.w3.org/Graphics/SVG/1.1/DTD/svg11.dtd">
<svg version="1.1" xmlns="http://www.w3.org/2000/svg" xmlns:xlink="http://www.w3.org/1999/xlink" x="0px" y="0px" width="283.9px"
	 height="212.5px" viewBox="0 0 283.9 212.5" enable-background="new 0 0 283.9 212.5" xml:space="preserve">
<g id="graphic_bg">
</g>
<g id="area_elements">
</g>
<g id="charachters">
</g>
<g id="text">
	<path fill="#0071BC" d="M8.4,212.5h272.8c-45.9-13.4-95.3-13-136.5-40.9c-30.2-20.4-109-93.3-69.7-136.8
		c8.9-9.9,40.9-12.7,52.5-7.4c7.9,3.6,16,8.4,24.7,7.4c-0.1,0-16.6-19.2-19.1-21c-8.6-6.2-19-10.7-29.5-12.2
		c-20.1-2.8-44.4,5.1-60,18C-8.3,62.6-3.6,138.2,6.2,198.1C7,202.9,7.7,207.7,8.4,212.5z"/>
</g>
</svg>
